%TF.GenerationSoftware,KiCad,Pcbnew,9.0.0*%
%TF.CreationDate,2025-07-20T18:05:21-04:00*%
%TF.ProjectId,PCB UI ESP32,50434220-5549-4204-9553-5033322e6b69,rev?*%
%TF.SameCoordinates,Original*%
%TF.FileFunction,Soldermask,Bot*%
%TF.FilePolarity,Negative*%
%FSLAX46Y46*%
G04 Gerber Fmt 4.6, Leading zero omitted, Abs format (unit mm)*
G04 Created by KiCad (PCBNEW 9.0.0) date 2025-07-20 18:05:21*
%MOMM*%
%LPD*%
G01*
G04 APERTURE LIST*
%ADD10C,1.500000*%
%ADD11R,1.650000X1.650000*%
%ADD12C,1.650000*%
%ADD13C,3.200000*%
%ADD14C,0.650000*%
%ADD15O,1.000000X2.100000*%
%ADD16O,1.000000X1.800000*%
%ADD17C,1.950000*%
%ADD18C,4.460000*%
%ADD19C,1.575000*%
%ADD20C,2.325000*%
%ADD21R,1.550000X0.600000*%
%ADD22R,1.800000X0.800000*%
G04 APERTURE END LIST*
D10*
%TO.C,J5*%
X90250000Y-138000000D03*
X114450000Y-138000000D03*
%TD*%
D11*
%TO.C,U8*%
X122130000Y-79230000D03*
D12*
X119590000Y-79230000D03*
X117050000Y-79230000D03*
X114510000Y-79230000D03*
X111970000Y-79230000D03*
X109430000Y-79230000D03*
X106890000Y-79230000D03*
X104350000Y-79230000D03*
X101810000Y-79230000D03*
X99270000Y-79230000D03*
X96730000Y-79230000D03*
X94190000Y-79230000D03*
X91650000Y-79230000D03*
X89110000Y-79230000D03*
X86570000Y-79230000D03*
X84030000Y-79230000D03*
X81490000Y-79230000D03*
X78950000Y-79230000D03*
X76410000Y-79230000D03*
X73870000Y-79230000D03*
%TD*%
D13*
%TO.C,H3*%
X139400000Y-122400000D03*
%TD*%
D14*
%TO.C,J3*%
X100290000Y-56805000D03*
X94510000Y-56805000D03*
D15*
X101720000Y-57305000D03*
D16*
X101720000Y-53125000D03*
D15*
X93080000Y-57305000D03*
D16*
X93080000Y-53125000D03*
%TD*%
D17*
%TO.C,U5*%
X111000000Y-70300000D03*
X116000000Y-70300000D03*
X121000000Y-70300000D03*
X113500000Y-52800000D03*
X118500000Y-52800000D03*
D18*
X108600000Y-59800000D03*
X123400000Y-59800000D03*
%TD*%
D13*
%TO.C,H1*%
X55400000Y-72400000D03*
%TD*%
%TO.C,H4*%
X59965000Y-129075000D03*
%TD*%
%TO.C,H2*%
X83400000Y-122400000D03*
%TD*%
D19*
%TO.C,S1*%
X86849500Y-54475000D03*
X82349500Y-54475000D03*
D20*
X88099500Y-56975000D03*
X81099500Y-56975000D03*
%TD*%
D21*
%TO.C,J1*%
X114512500Y-61200000D03*
X114512500Y-60200000D03*
X114512500Y-59200000D03*
X114512500Y-58200000D03*
X114512500Y-57200000D03*
D22*
X117087500Y-62500000D03*
X117087500Y-55900000D03*
%TD*%
D21*
%TO.C,J2*%
X124700000Y-53280000D03*
X124700000Y-54280000D03*
D22*
X122175000Y-51980000D03*
X122175000Y-55580000D03*
%TD*%
M02*
