%TF.GenerationSoftware,KiCad,Pcbnew,9.0.0*%
%TF.CreationDate,2025-07-20T18:05:20-04:00*%
%TF.ProjectId,PCB UI ESP32,50434220-5549-4204-9553-5033322e6b69,rev?*%
%TF.SameCoordinates,Original*%
%TF.FileFunction,Legend,Top*%
%TF.FilePolarity,Positive*%
%FSLAX46Y46*%
G04 Gerber Fmt 4.6, Leading zero omitted, Abs format (unit mm)*
G04 Created by KiCad (PCBNEW 9.0.0) date 2025-07-20 18:05:20*
%MOMM*%
%LPD*%
G01*
G04 APERTURE LIST*
%ADD10C,0.120000*%
%ADD11C,0.200000*%
%ADD12C,0.100000*%
%ADD13C,0.150000*%
G04 APERTURE END LIST*
D10*
X62469423Y-115959093D02*
X63078947Y-115959093D01*
X62774185Y-116263855D02*
X62774185Y-115654331D01*
X63383708Y-115463855D02*
X63878946Y-115463855D01*
X63878946Y-115463855D02*
X63612280Y-115768617D01*
X63612280Y-115768617D02*
X63726565Y-115768617D01*
X63726565Y-115768617D02*
X63802756Y-115806712D01*
X63802756Y-115806712D02*
X63840851Y-115844807D01*
X63840851Y-115844807D02*
X63878946Y-115920998D01*
X63878946Y-115920998D02*
X63878946Y-116111474D01*
X63878946Y-116111474D02*
X63840851Y-116187664D01*
X63840851Y-116187664D02*
X63802756Y-116225760D01*
X63802756Y-116225760D02*
X63726565Y-116263855D01*
X63726565Y-116263855D02*
X63497994Y-116263855D01*
X63497994Y-116263855D02*
X63421803Y-116225760D01*
X63421803Y-116225760D02*
X63383708Y-116187664D01*
X64107518Y-115463855D02*
X64374185Y-116263855D01*
X64374185Y-116263855D02*
X64640851Y-115463855D01*
X64831327Y-115463855D02*
X65326565Y-115463855D01*
X65326565Y-115463855D02*
X65059899Y-115768617D01*
X65059899Y-115768617D02*
X65174184Y-115768617D01*
X65174184Y-115768617D02*
X65250375Y-115806712D01*
X65250375Y-115806712D02*
X65288470Y-115844807D01*
X65288470Y-115844807D02*
X65326565Y-115920998D01*
X65326565Y-115920998D02*
X65326565Y-116111474D01*
X65326565Y-116111474D02*
X65288470Y-116187664D01*
X65288470Y-116187664D02*
X65250375Y-116225760D01*
X65250375Y-116225760D02*
X65174184Y-116263855D01*
X65174184Y-116263855D02*
X64945613Y-116263855D01*
X64945613Y-116263855D02*
X64869422Y-116225760D01*
X64869422Y-116225760D02*
X64831327Y-116187664D01*
X143301950Y-102861529D02*
X143263855Y-102937719D01*
X143263855Y-102937719D02*
X143263855Y-103052005D01*
X143263855Y-103052005D02*
X143301950Y-103166291D01*
X143301950Y-103166291D02*
X143378140Y-103242481D01*
X143378140Y-103242481D02*
X143454331Y-103280576D01*
X143454331Y-103280576D02*
X143606712Y-103318672D01*
X143606712Y-103318672D02*
X143720998Y-103318672D01*
X143720998Y-103318672D02*
X143873379Y-103280576D01*
X143873379Y-103280576D02*
X143949569Y-103242481D01*
X143949569Y-103242481D02*
X144025760Y-103166291D01*
X144025760Y-103166291D02*
X144063855Y-103052005D01*
X144063855Y-103052005D02*
X144063855Y-102975814D01*
X144063855Y-102975814D02*
X144025760Y-102861529D01*
X144025760Y-102861529D02*
X143987664Y-102823433D01*
X143987664Y-102823433D02*
X143720998Y-102823433D01*
X143720998Y-102823433D02*
X143720998Y-102975814D01*
X144063855Y-102480576D02*
X143263855Y-102480576D01*
X143263855Y-102480576D02*
X144063855Y-102023433D01*
X144063855Y-102023433D02*
X143263855Y-102023433D01*
X144063855Y-101642481D02*
X143263855Y-101642481D01*
X143263855Y-101642481D02*
X143263855Y-101452005D01*
X143263855Y-101452005D02*
X143301950Y-101337719D01*
X143301950Y-101337719D02*
X143378140Y-101261529D01*
X143378140Y-101261529D02*
X143454331Y-101223434D01*
X143454331Y-101223434D02*
X143606712Y-101185338D01*
X143606712Y-101185338D02*
X143720998Y-101185338D01*
X143720998Y-101185338D02*
X143873379Y-101223434D01*
X143873379Y-101223434D02*
X143949569Y-101261529D01*
X143949569Y-101261529D02*
X144025760Y-101337719D01*
X144025760Y-101337719D02*
X144063855Y-101452005D01*
X144063855Y-101452005D02*
X144063855Y-101642481D01*
X126381327Y-110834013D02*
X127028947Y-110834013D01*
X126705137Y-111157823D02*
X126705137Y-110510204D01*
X127352756Y-110307823D02*
X127878947Y-110307823D01*
X127878947Y-110307823D02*
X127595613Y-110631632D01*
X127595613Y-110631632D02*
X127717042Y-110631632D01*
X127717042Y-110631632D02*
X127797994Y-110672108D01*
X127797994Y-110672108D02*
X127838470Y-110712585D01*
X127838470Y-110712585D02*
X127878947Y-110793537D01*
X127878947Y-110793537D02*
X127878947Y-110995918D01*
X127878947Y-110995918D02*
X127838470Y-111076870D01*
X127838470Y-111076870D02*
X127797994Y-111117347D01*
X127797994Y-111117347D02*
X127717042Y-111157823D01*
X127717042Y-111157823D02*
X127474185Y-111157823D01*
X127474185Y-111157823D02*
X127393232Y-111117347D01*
X127393232Y-111117347D02*
X127352756Y-111076870D01*
X128121804Y-110307823D02*
X128405137Y-111157823D01*
X128405137Y-111157823D02*
X128688471Y-110307823D01*
X128890851Y-110307823D02*
X129417042Y-110307823D01*
X129417042Y-110307823D02*
X129133708Y-110631632D01*
X129133708Y-110631632D02*
X129255137Y-110631632D01*
X129255137Y-110631632D02*
X129336089Y-110672108D01*
X129336089Y-110672108D02*
X129376565Y-110712585D01*
X129376565Y-110712585D02*
X129417042Y-110793537D01*
X129417042Y-110793537D02*
X129417042Y-110995918D01*
X129417042Y-110995918D02*
X129376565Y-111076870D01*
X129376565Y-111076870D02*
X129336089Y-111117347D01*
X129336089Y-111117347D02*
X129255137Y-111157823D01*
X129255137Y-111157823D02*
X129012280Y-111157823D01*
X129012280Y-111157823D02*
X128931327Y-111117347D01*
X128931327Y-111117347D02*
X128890851Y-111076870D01*
X126381327Y-113570917D02*
X127028947Y-113570917D01*
X126705137Y-113894727D02*
X126705137Y-113247108D01*
X127838470Y-113044727D02*
X127433708Y-113044727D01*
X127433708Y-113044727D02*
X127393232Y-113449489D01*
X127393232Y-113449489D02*
X127433708Y-113409012D01*
X127433708Y-113409012D02*
X127514661Y-113368536D01*
X127514661Y-113368536D02*
X127717042Y-113368536D01*
X127717042Y-113368536D02*
X127797994Y-113409012D01*
X127797994Y-113409012D02*
X127838470Y-113449489D01*
X127838470Y-113449489D02*
X127878947Y-113530441D01*
X127878947Y-113530441D02*
X127878947Y-113732822D01*
X127878947Y-113732822D02*
X127838470Y-113813774D01*
X127838470Y-113813774D02*
X127797994Y-113854251D01*
X127797994Y-113854251D02*
X127717042Y-113894727D01*
X127717042Y-113894727D02*
X127514661Y-113894727D01*
X127514661Y-113894727D02*
X127433708Y-113854251D01*
X127433708Y-113854251D02*
X127393232Y-113813774D01*
X128121804Y-113044727D02*
X128405137Y-113894727D01*
X128405137Y-113894727D02*
X128688471Y-113044727D01*
X126381327Y-116631631D02*
X126381327Y-115781631D01*
X126381327Y-116186393D02*
X126867042Y-116186393D01*
X126867042Y-116631631D02*
X126867042Y-115781631D01*
X127271803Y-116186393D02*
X127555137Y-116186393D01*
X127676565Y-116631631D02*
X127271803Y-116631631D01*
X127271803Y-116631631D02*
X127271803Y-115781631D01*
X127271803Y-115781631D02*
X127676565Y-115781631D01*
X128000375Y-116388774D02*
X128405137Y-116388774D01*
X127919423Y-116631631D02*
X128202756Y-115781631D01*
X128202756Y-115781631D02*
X128486090Y-116631631D01*
X128647994Y-115781631D02*
X129133708Y-115781631D01*
X128890851Y-116631631D02*
X128890851Y-115781631D01*
X129417041Y-116186393D02*
X129700375Y-116186393D01*
X129821803Y-116631631D02*
X129417041Y-116631631D01*
X129417041Y-116631631D02*
X129417041Y-115781631D01*
X129417041Y-115781631D02*
X129821803Y-115781631D01*
X130671804Y-116631631D02*
X130388470Y-116226869D01*
X130186089Y-116631631D02*
X130186089Y-115781631D01*
X130186089Y-115781631D02*
X130509899Y-115781631D01*
X130509899Y-115781631D02*
X130590851Y-115822107D01*
X130590851Y-115822107D02*
X130631328Y-115862583D01*
X130631328Y-115862583D02*
X130671804Y-115943535D01*
X130671804Y-115943535D02*
X130671804Y-116064964D01*
X130671804Y-116064964D02*
X130631328Y-116145916D01*
X130631328Y-116145916D02*
X130590851Y-116186393D01*
X130590851Y-116186393D02*
X130509899Y-116226869D01*
X130509899Y-116226869D02*
X130186089Y-116226869D01*
X131683708Y-116631631D02*
X131683708Y-115781631D01*
X131683708Y-115781631D02*
X132007518Y-115781631D01*
X132007518Y-115781631D02*
X132088470Y-115822107D01*
X132088470Y-115822107D02*
X132128947Y-115862583D01*
X132128947Y-115862583D02*
X132169423Y-115943535D01*
X132169423Y-115943535D02*
X132169423Y-116064964D01*
X132169423Y-116064964D02*
X132128947Y-116145916D01*
X132128947Y-116145916D02*
X132088470Y-116186393D01*
X132088470Y-116186393D02*
X132007518Y-116226869D01*
X132007518Y-116226869D02*
X131683708Y-116226869D01*
X132533708Y-116631631D02*
X132533708Y-115781631D01*
X132938470Y-116631631D02*
X132938470Y-115781631D01*
X132938470Y-115781631D02*
X133140851Y-115781631D01*
X133140851Y-115781631D02*
X133262280Y-115822107D01*
X133262280Y-115822107D02*
X133343232Y-115903059D01*
X133343232Y-115903059D02*
X133383709Y-115984012D01*
X133383709Y-115984012D02*
X133424185Y-116145916D01*
X133424185Y-116145916D02*
X133424185Y-116267345D01*
X133424185Y-116267345D02*
X133383709Y-116429250D01*
X133383709Y-116429250D02*
X133343232Y-116510202D01*
X133343232Y-116510202D02*
X133262280Y-116591155D01*
X133262280Y-116591155D02*
X133140851Y-116631631D01*
X133140851Y-116631631D02*
X132938470Y-116631631D01*
X126259899Y-118518535D02*
X126745613Y-118518535D01*
X126502756Y-119368535D02*
X126502756Y-118518535D01*
X127028946Y-119368535D02*
X127028946Y-118518535D01*
X127028946Y-118923297D02*
X127514661Y-118923297D01*
X127514661Y-119368535D02*
X127514661Y-118518535D01*
X127919422Y-118923297D02*
X128202756Y-118923297D01*
X128324184Y-119368535D02*
X127919422Y-119368535D01*
X127919422Y-119368535D02*
X127919422Y-118518535D01*
X127919422Y-118518535D02*
X128324184Y-118518535D01*
X129174185Y-119368535D02*
X128890851Y-118963773D01*
X128688470Y-119368535D02*
X128688470Y-118518535D01*
X128688470Y-118518535D02*
X129012280Y-118518535D01*
X129012280Y-118518535D02*
X129093232Y-118559011D01*
X129093232Y-118559011D02*
X129133709Y-118599487D01*
X129133709Y-118599487D02*
X129174185Y-118680439D01*
X129174185Y-118680439D02*
X129174185Y-118801868D01*
X129174185Y-118801868D02*
X129133709Y-118882820D01*
X129133709Y-118882820D02*
X129093232Y-118923297D01*
X129093232Y-118923297D02*
X129012280Y-118963773D01*
X129012280Y-118963773D02*
X128688470Y-118963773D01*
X129538470Y-119368535D02*
X129538470Y-118518535D01*
X129538470Y-118518535D02*
X129821804Y-119125678D01*
X129821804Y-119125678D02*
X130105137Y-118518535D01*
X130105137Y-118518535D02*
X130105137Y-119368535D01*
X126664661Y-121660201D02*
X126786089Y-121700677D01*
X126786089Y-121700677D02*
X126826566Y-121741153D01*
X126826566Y-121741153D02*
X126867042Y-121822105D01*
X126867042Y-121822105D02*
X126867042Y-121943534D01*
X126867042Y-121943534D02*
X126826566Y-122024486D01*
X126826566Y-122024486D02*
X126786089Y-122064963D01*
X126786089Y-122064963D02*
X126705137Y-122105439D01*
X126705137Y-122105439D02*
X126381327Y-122105439D01*
X126381327Y-122105439D02*
X126381327Y-121255439D01*
X126381327Y-121255439D02*
X126664661Y-121255439D01*
X126664661Y-121255439D02*
X126745613Y-121295915D01*
X126745613Y-121295915D02*
X126786089Y-121336391D01*
X126786089Y-121336391D02*
X126826566Y-121417343D01*
X126826566Y-121417343D02*
X126826566Y-121498296D01*
X126826566Y-121498296D02*
X126786089Y-121579248D01*
X126786089Y-121579248D02*
X126745613Y-121619724D01*
X126745613Y-121619724D02*
X126664661Y-121660201D01*
X126664661Y-121660201D02*
X126381327Y-121660201D01*
X127636089Y-122105439D02*
X127231327Y-122105439D01*
X127231327Y-122105439D02*
X127231327Y-121255439D01*
X128081327Y-121255439D02*
X128243232Y-121255439D01*
X128243232Y-121255439D02*
X128324184Y-121295915D01*
X128324184Y-121295915D02*
X128405137Y-121376867D01*
X128405137Y-121376867D02*
X128445613Y-121538772D01*
X128445613Y-121538772D02*
X128445613Y-121822105D01*
X128445613Y-121822105D02*
X128405137Y-121984010D01*
X128405137Y-121984010D02*
X128324184Y-122064963D01*
X128324184Y-122064963D02*
X128243232Y-122105439D01*
X128243232Y-122105439D02*
X128081327Y-122105439D01*
X128081327Y-122105439D02*
X128000375Y-122064963D01*
X128000375Y-122064963D02*
X127919422Y-121984010D01*
X127919422Y-121984010D02*
X127878946Y-121822105D01*
X127878946Y-121822105D02*
X127878946Y-121538772D01*
X127878946Y-121538772D02*
X127919422Y-121376867D01*
X127919422Y-121376867D02*
X128000375Y-121295915D01*
X128000375Y-121295915D02*
X128081327Y-121255439D01*
X128728946Y-121255439D02*
X128931327Y-122105439D01*
X128931327Y-122105439D02*
X129093232Y-121498296D01*
X129093232Y-121498296D02*
X129255137Y-122105439D01*
X129255137Y-122105439D02*
X129457518Y-121255439D01*
X129781327Y-121660201D02*
X130064661Y-121660201D01*
X130186089Y-122105439D02*
X129781327Y-122105439D01*
X129781327Y-122105439D02*
X129781327Y-121255439D01*
X129781327Y-121255439D02*
X130186089Y-121255439D01*
X131036090Y-122105439D02*
X130752756Y-121700677D01*
X130550375Y-122105439D02*
X130550375Y-121255439D01*
X130550375Y-121255439D02*
X130874185Y-121255439D01*
X130874185Y-121255439D02*
X130955137Y-121295915D01*
X130955137Y-121295915D02*
X130995614Y-121336391D01*
X130995614Y-121336391D02*
X131036090Y-121417343D01*
X131036090Y-121417343D02*
X131036090Y-121538772D01*
X131036090Y-121538772D02*
X130995614Y-121619724D01*
X130995614Y-121619724D02*
X130955137Y-121660201D01*
X130955137Y-121660201D02*
X130874185Y-121700677D01*
X130874185Y-121700677D02*
X130550375Y-121700677D01*
X132047994Y-122105439D02*
X132047994Y-121255439D01*
X132047994Y-121255439D02*
X132371804Y-121255439D01*
X132371804Y-121255439D02*
X132452756Y-121295915D01*
X132452756Y-121295915D02*
X132493233Y-121336391D01*
X132493233Y-121336391D02*
X132533709Y-121417343D01*
X132533709Y-121417343D02*
X132533709Y-121538772D01*
X132533709Y-121538772D02*
X132493233Y-121619724D01*
X132493233Y-121619724D02*
X132452756Y-121660201D01*
X132452756Y-121660201D02*
X132371804Y-121700677D01*
X132371804Y-121700677D02*
X132047994Y-121700677D01*
X132897994Y-122105439D02*
X132897994Y-121255439D01*
X133302756Y-122105439D02*
X133302756Y-121255439D01*
X133302756Y-121255439D02*
X133505137Y-121255439D01*
X133505137Y-121255439D02*
X133626566Y-121295915D01*
X133626566Y-121295915D02*
X133707518Y-121376867D01*
X133707518Y-121376867D02*
X133747995Y-121457820D01*
X133747995Y-121457820D02*
X133788471Y-121619724D01*
X133788471Y-121619724D02*
X133788471Y-121741153D01*
X133788471Y-121741153D02*
X133747995Y-121903058D01*
X133747995Y-121903058D02*
X133707518Y-121984010D01*
X133707518Y-121984010D02*
X133626566Y-122064963D01*
X133626566Y-122064963D02*
X133505137Y-122105439D01*
X133505137Y-122105439D02*
X133302756Y-122105439D01*
X126381327Y-124842343D02*
X126381327Y-123992343D01*
X126381327Y-123992343D02*
X126664661Y-124599486D01*
X126664661Y-124599486D02*
X126947994Y-123992343D01*
X126947994Y-123992343D02*
X126947994Y-124842343D01*
X127514661Y-123992343D02*
X127676566Y-123992343D01*
X127676566Y-123992343D02*
X127757518Y-124032819D01*
X127757518Y-124032819D02*
X127838471Y-124113771D01*
X127838471Y-124113771D02*
X127878947Y-124275676D01*
X127878947Y-124275676D02*
X127878947Y-124559009D01*
X127878947Y-124559009D02*
X127838471Y-124720914D01*
X127838471Y-124720914D02*
X127757518Y-124801867D01*
X127757518Y-124801867D02*
X127676566Y-124842343D01*
X127676566Y-124842343D02*
X127514661Y-124842343D01*
X127514661Y-124842343D02*
X127433709Y-124801867D01*
X127433709Y-124801867D02*
X127352756Y-124720914D01*
X127352756Y-124720914D02*
X127312280Y-124559009D01*
X127312280Y-124559009D02*
X127312280Y-124275676D01*
X127312280Y-124275676D02*
X127352756Y-124113771D01*
X127352756Y-124113771D02*
X127433709Y-124032819D01*
X127433709Y-124032819D02*
X127514661Y-123992343D01*
X128121804Y-123992343D02*
X128607518Y-123992343D01*
X128364661Y-124842343D02*
X128364661Y-123992343D01*
X129052756Y-123992343D02*
X129214661Y-123992343D01*
X129214661Y-123992343D02*
X129295613Y-124032819D01*
X129295613Y-124032819D02*
X129376566Y-124113771D01*
X129376566Y-124113771D02*
X129417042Y-124275676D01*
X129417042Y-124275676D02*
X129417042Y-124559009D01*
X129417042Y-124559009D02*
X129376566Y-124720914D01*
X129376566Y-124720914D02*
X129295613Y-124801867D01*
X129295613Y-124801867D02*
X129214661Y-124842343D01*
X129214661Y-124842343D02*
X129052756Y-124842343D01*
X129052756Y-124842343D02*
X128971804Y-124801867D01*
X128971804Y-124801867D02*
X128890851Y-124720914D01*
X128890851Y-124720914D02*
X128850375Y-124559009D01*
X128850375Y-124559009D02*
X128850375Y-124275676D01*
X128850375Y-124275676D02*
X128890851Y-124113771D01*
X128890851Y-124113771D02*
X128971804Y-124032819D01*
X128971804Y-124032819D02*
X129052756Y-123992343D01*
X130267042Y-124842343D02*
X129983708Y-124437581D01*
X129781327Y-124842343D02*
X129781327Y-123992343D01*
X129781327Y-123992343D02*
X130105137Y-123992343D01*
X130105137Y-123992343D02*
X130186089Y-124032819D01*
X130186089Y-124032819D02*
X130226566Y-124073295D01*
X130226566Y-124073295D02*
X130267042Y-124154247D01*
X130267042Y-124154247D02*
X130267042Y-124275676D01*
X130267042Y-124275676D02*
X130226566Y-124356628D01*
X130226566Y-124356628D02*
X130186089Y-124397105D01*
X130186089Y-124397105D02*
X130105137Y-124437581D01*
X130105137Y-124437581D02*
X129781327Y-124437581D01*
X131278946Y-124842343D02*
X131278946Y-123992343D01*
X131278946Y-123992343D02*
X131602756Y-123992343D01*
X131602756Y-123992343D02*
X131683708Y-124032819D01*
X131683708Y-124032819D02*
X131724185Y-124073295D01*
X131724185Y-124073295D02*
X131764661Y-124154247D01*
X131764661Y-124154247D02*
X131764661Y-124275676D01*
X131764661Y-124275676D02*
X131724185Y-124356628D01*
X131724185Y-124356628D02*
X131683708Y-124397105D01*
X131683708Y-124397105D02*
X131602756Y-124437581D01*
X131602756Y-124437581D02*
X131278946Y-124437581D01*
X132128946Y-124842343D02*
X132128946Y-123992343D01*
X132533708Y-124842343D02*
X132533708Y-123992343D01*
X132533708Y-123992343D02*
X132736089Y-123992343D01*
X132736089Y-123992343D02*
X132857518Y-124032819D01*
X132857518Y-124032819D02*
X132938470Y-124113771D01*
X132938470Y-124113771D02*
X132978947Y-124194724D01*
X132978947Y-124194724D02*
X133019423Y-124356628D01*
X133019423Y-124356628D02*
X133019423Y-124478057D01*
X133019423Y-124478057D02*
X132978947Y-124639962D01*
X132978947Y-124639962D02*
X132938470Y-124720914D01*
X132938470Y-124720914D02*
X132857518Y-124801867D01*
X132857518Y-124801867D02*
X132736089Y-124842343D01*
X132736089Y-124842343D02*
X132533708Y-124842343D01*
X134476566Y-124842343D02*
X133990851Y-124842343D01*
X134233708Y-124842343D02*
X134233708Y-123992343D01*
X134233708Y-123992343D02*
X134152756Y-124113771D01*
X134152756Y-124113771D02*
X134071804Y-124194724D01*
X134071804Y-124194724D02*
X133990851Y-124235200D01*
X126381327Y-127579247D02*
X126381327Y-126729247D01*
X126381327Y-126729247D02*
X126664661Y-127336390D01*
X126664661Y-127336390D02*
X126947994Y-126729247D01*
X126947994Y-126729247D02*
X126947994Y-127579247D01*
X127514661Y-126729247D02*
X127676566Y-126729247D01*
X127676566Y-126729247D02*
X127757518Y-126769723D01*
X127757518Y-126769723D02*
X127838471Y-126850675D01*
X127838471Y-126850675D02*
X127878947Y-127012580D01*
X127878947Y-127012580D02*
X127878947Y-127295913D01*
X127878947Y-127295913D02*
X127838471Y-127457818D01*
X127838471Y-127457818D02*
X127757518Y-127538771D01*
X127757518Y-127538771D02*
X127676566Y-127579247D01*
X127676566Y-127579247D02*
X127514661Y-127579247D01*
X127514661Y-127579247D02*
X127433709Y-127538771D01*
X127433709Y-127538771D02*
X127352756Y-127457818D01*
X127352756Y-127457818D02*
X127312280Y-127295913D01*
X127312280Y-127295913D02*
X127312280Y-127012580D01*
X127312280Y-127012580D02*
X127352756Y-126850675D01*
X127352756Y-126850675D02*
X127433709Y-126769723D01*
X127433709Y-126769723D02*
X127514661Y-126729247D01*
X128121804Y-126729247D02*
X128607518Y-126729247D01*
X128364661Y-127579247D02*
X128364661Y-126729247D01*
X129052756Y-126729247D02*
X129214661Y-126729247D01*
X129214661Y-126729247D02*
X129295613Y-126769723D01*
X129295613Y-126769723D02*
X129376566Y-126850675D01*
X129376566Y-126850675D02*
X129417042Y-127012580D01*
X129417042Y-127012580D02*
X129417042Y-127295913D01*
X129417042Y-127295913D02*
X129376566Y-127457818D01*
X129376566Y-127457818D02*
X129295613Y-127538771D01*
X129295613Y-127538771D02*
X129214661Y-127579247D01*
X129214661Y-127579247D02*
X129052756Y-127579247D01*
X129052756Y-127579247D02*
X128971804Y-127538771D01*
X128971804Y-127538771D02*
X128890851Y-127457818D01*
X128890851Y-127457818D02*
X128850375Y-127295913D01*
X128850375Y-127295913D02*
X128850375Y-127012580D01*
X128850375Y-127012580D02*
X128890851Y-126850675D01*
X128890851Y-126850675D02*
X128971804Y-126769723D01*
X128971804Y-126769723D02*
X129052756Y-126729247D01*
X130267042Y-127579247D02*
X129983708Y-127174485D01*
X129781327Y-127579247D02*
X129781327Y-126729247D01*
X129781327Y-126729247D02*
X130105137Y-126729247D01*
X130105137Y-126729247D02*
X130186089Y-126769723D01*
X130186089Y-126769723D02*
X130226566Y-126810199D01*
X130226566Y-126810199D02*
X130267042Y-126891151D01*
X130267042Y-126891151D02*
X130267042Y-127012580D01*
X130267042Y-127012580D02*
X130226566Y-127093532D01*
X130226566Y-127093532D02*
X130186089Y-127134009D01*
X130186089Y-127134009D02*
X130105137Y-127174485D01*
X130105137Y-127174485D02*
X129781327Y-127174485D01*
X131278946Y-127579247D02*
X131278946Y-126729247D01*
X131278946Y-126729247D02*
X131602756Y-126729247D01*
X131602756Y-126729247D02*
X131683708Y-126769723D01*
X131683708Y-126769723D02*
X131724185Y-126810199D01*
X131724185Y-126810199D02*
X131764661Y-126891151D01*
X131764661Y-126891151D02*
X131764661Y-127012580D01*
X131764661Y-127012580D02*
X131724185Y-127093532D01*
X131724185Y-127093532D02*
X131683708Y-127134009D01*
X131683708Y-127134009D02*
X131602756Y-127174485D01*
X131602756Y-127174485D02*
X131278946Y-127174485D01*
X132128946Y-127579247D02*
X132128946Y-126729247D01*
X132533708Y-127579247D02*
X132533708Y-126729247D01*
X132533708Y-126729247D02*
X132736089Y-126729247D01*
X132736089Y-126729247D02*
X132857518Y-126769723D01*
X132857518Y-126769723D02*
X132938470Y-126850675D01*
X132938470Y-126850675D02*
X132978947Y-126931628D01*
X132978947Y-126931628D02*
X133019423Y-127093532D01*
X133019423Y-127093532D02*
X133019423Y-127214961D01*
X133019423Y-127214961D02*
X132978947Y-127376866D01*
X132978947Y-127376866D02*
X132938470Y-127457818D01*
X132938470Y-127457818D02*
X132857518Y-127538771D01*
X132857518Y-127538771D02*
X132736089Y-127579247D01*
X132736089Y-127579247D02*
X132533708Y-127579247D01*
X133990851Y-126810199D02*
X134031327Y-126769723D01*
X134031327Y-126769723D02*
X134112280Y-126729247D01*
X134112280Y-126729247D02*
X134314661Y-126729247D01*
X134314661Y-126729247D02*
X134395613Y-126769723D01*
X134395613Y-126769723D02*
X134436089Y-126810199D01*
X134436089Y-126810199D02*
X134476566Y-126891151D01*
X134476566Y-126891151D02*
X134476566Y-126972104D01*
X134476566Y-126972104D02*
X134436089Y-127093532D01*
X134436089Y-127093532D02*
X133950375Y-127579247D01*
X133950375Y-127579247D02*
X134476566Y-127579247D01*
X126826566Y-129506627D02*
X126745613Y-129466151D01*
X126745613Y-129466151D02*
X126624185Y-129466151D01*
X126624185Y-129466151D02*
X126502756Y-129506627D01*
X126502756Y-129506627D02*
X126421804Y-129587579D01*
X126421804Y-129587579D02*
X126381327Y-129668532D01*
X126381327Y-129668532D02*
X126340851Y-129830436D01*
X126340851Y-129830436D02*
X126340851Y-129951865D01*
X126340851Y-129951865D02*
X126381327Y-130113770D01*
X126381327Y-130113770D02*
X126421804Y-130194722D01*
X126421804Y-130194722D02*
X126502756Y-130275675D01*
X126502756Y-130275675D02*
X126624185Y-130316151D01*
X126624185Y-130316151D02*
X126705137Y-130316151D01*
X126705137Y-130316151D02*
X126826566Y-130275675D01*
X126826566Y-130275675D02*
X126867042Y-130235198D01*
X126867042Y-130235198D02*
X126867042Y-129951865D01*
X126867042Y-129951865D02*
X126705137Y-129951865D01*
X127231327Y-130316151D02*
X127231327Y-129466151D01*
X127231327Y-129466151D02*
X127717042Y-130316151D01*
X127717042Y-130316151D02*
X127717042Y-129466151D01*
X128121803Y-130316151D02*
X128121803Y-129466151D01*
X128121803Y-129466151D02*
X128324184Y-129466151D01*
X128324184Y-129466151D02*
X128445613Y-129506627D01*
X128445613Y-129506627D02*
X128526565Y-129587579D01*
X128526565Y-129587579D02*
X128567042Y-129668532D01*
X128567042Y-129668532D02*
X128607518Y-129830436D01*
X128607518Y-129830436D02*
X128607518Y-129951865D01*
X128607518Y-129951865D02*
X128567042Y-130113770D01*
X128567042Y-130113770D02*
X128526565Y-130194722D01*
X128526565Y-130194722D02*
X128445613Y-130275675D01*
X128445613Y-130275675D02*
X128324184Y-130316151D01*
X128324184Y-130316151D02*
X128121803Y-130316151D01*
X106145238Y-76944807D02*
X106411904Y-76944807D01*
X106526190Y-77363855D02*
X106145238Y-77363855D01*
X106145238Y-77363855D02*
X106145238Y-76563855D01*
X106145238Y-76563855D02*
X106526190Y-76563855D01*
X106869048Y-77363855D02*
X106869048Y-76563855D01*
X106869048Y-76563855D02*
X107326191Y-77363855D01*
X107326191Y-77363855D02*
X107326191Y-76563855D01*
X108164286Y-77287664D02*
X108126190Y-77325760D01*
X108126190Y-77325760D02*
X108011905Y-77363855D01*
X108011905Y-77363855D02*
X107935714Y-77363855D01*
X107935714Y-77363855D02*
X107821428Y-77325760D01*
X107821428Y-77325760D02*
X107745238Y-77249569D01*
X107745238Y-77249569D02*
X107707143Y-77173379D01*
X107707143Y-77173379D02*
X107669047Y-77020998D01*
X107669047Y-77020998D02*
X107669047Y-76906712D01*
X107669047Y-76906712D02*
X107707143Y-76754331D01*
X107707143Y-76754331D02*
X107745238Y-76678140D01*
X107745238Y-76678140D02*
X107821428Y-76601950D01*
X107821428Y-76601950D02*
X107935714Y-76563855D01*
X107935714Y-76563855D02*
X108011905Y-76563855D01*
X108011905Y-76563855D02*
X108126190Y-76601950D01*
X108126190Y-76601950D02*
X108164286Y-76640045D01*
X110183334Y-77287664D02*
X110145238Y-77325760D01*
X110145238Y-77325760D02*
X110030953Y-77363855D01*
X110030953Y-77363855D02*
X109954762Y-77363855D01*
X109954762Y-77363855D02*
X109840476Y-77325760D01*
X109840476Y-77325760D02*
X109764286Y-77249569D01*
X109764286Y-77249569D02*
X109726191Y-77173379D01*
X109726191Y-77173379D02*
X109688095Y-77020998D01*
X109688095Y-77020998D02*
X109688095Y-76906712D01*
X109688095Y-76906712D02*
X109726191Y-76754331D01*
X109726191Y-76754331D02*
X109764286Y-76678140D01*
X109764286Y-76678140D02*
X109840476Y-76601950D01*
X109840476Y-76601950D02*
X109954762Y-76563855D01*
X109954762Y-76563855D02*
X110030953Y-76563855D01*
X110030953Y-76563855D02*
X110145238Y-76601950D01*
X110145238Y-76601950D02*
X110183334Y-76640045D01*
X110526191Y-77363855D02*
X110526191Y-76563855D01*
X110526191Y-76944807D02*
X110983334Y-76944807D01*
X110983334Y-77363855D02*
X110983334Y-76563855D01*
X111935714Y-77135283D02*
X112316667Y-77135283D01*
X111859524Y-77363855D02*
X112126191Y-76563855D01*
X112126191Y-76563855D02*
X112392857Y-77363855D01*
X114945239Y-77287664D02*
X114907143Y-77325760D01*
X114907143Y-77325760D02*
X114792858Y-77363855D01*
X114792858Y-77363855D02*
X114716667Y-77363855D01*
X114716667Y-77363855D02*
X114602381Y-77325760D01*
X114602381Y-77325760D02*
X114526191Y-77249569D01*
X114526191Y-77249569D02*
X114488096Y-77173379D01*
X114488096Y-77173379D02*
X114450000Y-77020998D01*
X114450000Y-77020998D02*
X114450000Y-76906712D01*
X114450000Y-76906712D02*
X114488096Y-76754331D01*
X114488096Y-76754331D02*
X114526191Y-76678140D01*
X114526191Y-76678140D02*
X114602381Y-76601950D01*
X114602381Y-76601950D02*
X114716667Y-76563855D01*
X114716667Y-76563855D02*
X114792858Y-76563855D01*
X114792858Y-76563855D02*
X114907143Y-76601950D01*
X114907143Y-76601950D02*
X114945239Y-76640045D01*
X115288096Y-77363855D02*
X115288096Y-76563855D01*
X115288096Y-76944807D02*
X115745239Y-76944807D01*
X115745239Y-77363855D02*
X115745239Y-76563855D01*
X117002381Y-76944807D02*
X117116667Y-76982902D01*
X117116667Y-76982902D02*
X117154762Y-77020998D01*
X117154762Y-77020998D02*
X117192858Y-77097188D01*
X117192858Y-77097188D02*
X117192858Y-77211474D01*
X117192858Y-77211474D02*
X117154762Y-77287664D01*
X117154762Y-77287664D02*
X117116667Y-77325760D01*
X117116667Y-77325760D02*
X117040477Y-77363855D01*
X117040477Y-77363855D02*
X116735715Y-77363855D01*
X116735715Y-77363855D02*
X116735715Y-76563855D01*
X116735715Y-76563855D02*
X117002381Y-76563855D01*
X117002381Y-76563855D02*
X117078572Y-76601950D01*
X117078572Y-76601950D02*
X117116667Y-76640045D01*
X117116667Y-76640045D02*
X117154762Y-76716236D01*
X117154762Y-76716236D02*
X117154762Y-76792426D01*
X117154762Y-76792426D02*
X117116667Y-76868617D01*
X117116667Y-76868617D02*
X117078572Y-76906712D01*
X117078572Y-76906712D02*
X117002381Y-76944807D01*
X117002381Y-76944807D02*
X116735715Y-76944807D01*
X83388095Y-60763855D02*
X83121428Y-60382902D01*
X82930952Y-60763855D02*
X82930952Y-59963855D01*
X82930952Y-59963855D02*
X83235714Y-59963855D01*
X83235714Y-59963855D02*
X83311904Y-60001950D01*
X83311904Y-60001950D02*
X83349999Y-60040045D01*
X83349999Y-60040045D02*
X83388095Y-60116236D01*
X83388095Y-60116236D02*
X83388095Y-60230521D01*
X83388095Y-60230521D02*
X83349999Y-60306712D01*
X83349999Y-60306712D02*
X83311904Y-60344807D01*
X83311904Y-60344807D02*
X83235714Y-60382902D01*
X83235714Y-60382902D02*
X82930952Y-60382902D01*
X83730952Y-60344807D02*
X83997618Y-60344807D01*
X84111904Y-60763855D02*
X83730952Y-60763855D01*
X83730952Y-60763855D02*
X83730952Y-59963855D01*
X83730952Y-59963855D02*
X84111904Y-59963855D01*
X84416666Y-60725760D02*
X84530952Y-60763855D01*
X84530952Y-60763855D02*
X84721428Y-60763855D01*
X84721428Y-60763855D02*
X84797619Y-60725760D01*
X84797619Y-60725760D02*
X84835714Y-60687664D01*
X84835714Y-60687664D02*
X84873809Y-60611474D01*
X84873809Y-60611474D02*
X84873809Y-60535283D01*
X84873809Y-60535283D02*
X84835714Y-60459093D01*
X84835714Y-60459093D02*
X84797619Y-60420998D01*
X84797619Y-60420998D02*
X84721428Y-60382902D01*
X84721428Y-60382902D02*
X84569047Y-60344807D01*
X84569047Y-60344807D02*
X84492857Y-60306712D01*
X84492857Y-60306712D02*
X84454762Y-60268617D01*
X84454762Y-60268617D02*
X84416666Y-60192426D01*
X84416666Y-60192426D02*
X84416666Y-60116236D01*
X84416666Y-60116236D02*
X84454762Y-60040045D01*
X84454762Y-60040045D02*
X84492857Y-60001950D01*
X84492857Y-60001950D02*
X84569047Y-59963855D01*
X84569047Y-59963855D02*
X84759524Y-59963855D01*
X84759524Y-59963855D02*
X84873809Y-60001950D01*
X85216667Y-60344807D02*
X85483333Y-60344807D01*
X85597619Y-60763855D02*
X85216667Y-60763855D01*
X85216667Y-60763855D02*
X85216667Y-59963855D01*
X85216667Y-59963855D02*
X85597619Y-59963855D01*
X85826191Y-59963855D02*
X86283334Y-59963855D01*
X86054762Y-60763855D02*
X86054762Y-59963855D01*
X65414285Y-76244807D02*
X65528571Y-76282902D01*
X65528571Y-76282902D02*
X65566666Y-76320998D01*
X65566666Y-76320998D02*
X65604762Y-76397188D01*
X65604762Y-76397188D02*
X65604762Y-76511474D01*
X65604762Y-76511474D02*
X65566666Y-76587664D01*
X65566666Y-76587664D02*
X65528571Y-76625760D01*
X65528571Y-76625760D02*
X65452381Y-76663855D01*
X65452381Y-76663855D02*
X65147619Y-76663855D01*
X65147619Y-76663855D02*
X65147619Y-75863855D01*
X65147619Y-75863855D02*
X65414285Y-75863855D01*
X65414285Y-75863855D02*
X65490476Y-75901950D01*
X65490476Y-75901950D02*
X65528571Y-75940045D01*
X65528571Y-75940045D02*
X65566666Y-76016236D01*
X65566666Y-76016236D02*
X65566666Y-76092426D01*
X65566666Y-76092426D02*
X65528571Y-76168617D01*
X65528571Y-76168617D02*
X65490476Y-76206712D01*
X65490476Y-76206712D02*
X65414285Y-76244807D01*
X65414285Y-76244807D02*
X65147619Y-76244807D01*
X66100000Y-75863855D02*
X66252381Y-75863855D01*
X66252381Y-75863855D02*
X66328571Y-75901950D01*
X66328571Y-75901950D02*
X66404762Y-75978140D01*
X66404762Y-75978140D02*
X66442857Y-76130521D01*
X66442857Y-76130521D02*
X66442857Y-76397188D01*
X66442857Y-76397188D02*
X66404762Y-76549569D01*
X66404762Y-76549569D02*
X66328571Y-76625760D01*
X66328571Y-76625760D02*
X66252381Y-76663855D01*
X66252381Y-76663855D02*
X66100000Y-76663855D01*
X66100000Y-76663855D02*
X66023809Y-76625760D01*
X66023809Y-76625760D02*
X65947619Y-76549569D01*
X65947619Y-76549569D02*
X65909523Y-76397188D01*
X65909523Y-76397188D02*
X65909523Y-76130521D01*
X65909523Y-76130521D02*
X65947619Y-75978140D01*
X65947619Y-75978140D02*
X66023809Y-75901950D01*
X66023809Y-75901950D02*
X66100000Y-75863855D01*
X66938095Y-75863855D02*
X67090476Y-75863855D01*
X67090476Y-75863855D02*
X67166666Y-75901950D01*
X67166666Y-75901950D02*
X67242857Y-75978140D01*
X67242857Y-75978140D02*
X67280952Y-76130521D01*
X67280952Y-76130521D02*
X67280952Y-76397188D01*
X67280952Y-76397188D02*
X67242857Y-76549569D01*
X67242857Y-76549569D02*
X67166666Y-76625760D01*
X67166666Y-76625760D02*
X67090476Y-76663855D01*
X67090476Y-76663855D02*
X66938095Y-76663855D01*
X66938095Y-76663855D02*
X66861904Y-76625760D01*
X66861904Y-76625760D02*
X66785714Y-76549569D01*
X66785714Y-76549569D02*
X66747618Y-76397188D01*
X66747618Y-76397188D02*
X66747618Y-76130521D01*
X66747618Y-76130521D02*
X66785714Y-75978140D01*
X66785714Y-75978140D02*
X66861904Y-75901950D01*
X66861904Y-75901950D02*
X66938095Y-75863855D01*
X67509523Y-75863855D02*
X67966666Y-75863855D01*
X67738094Y-76663855D02*
X67738094Y-75863855D01*
D11*
X52071427Y-137572314D02*
X51214284Y-137572314D01*
X51214284Y-137572314D02*
X51128570Y-138429457D01*
X51128570Y-138429457D02*
X51214284Y-138343742D01*
X51214284Y-138343742D02*
X51385713Y-138258028D01*
X51385713Y-138258028D02*
X51814284Y-138258028D01*
X51814284Y-138258028D02*
X51985713Y-138343742D01*
X51985713Y-138343742D02*
X52071427Y-138429457D01*
X52071427Y-138429457D02*
X52157141Y-138600885D01*
X52157141Y-138600885D02*
X52157141Y-139029457D01*
X52157141Y-139029457D02*
X52071427Y-139200885D01*
X52071427Y-139200885D02*
X51985713Y-139286600D01*
X51985713Y-139286600D02*
X51814284Y-139372314D01*
X51814284Y-139372314D02*
X51385713Y-139372314D01*
X51385713Y-139372314D02*
X51214284Y-139286600D01*
X51214284Y-139286600D02*
X51128570Y-139200885D01*
X53271427Y-137572314D02*
X53442856Y-137572314D01*
X53442856Y-137572314D02*
X53614284Y-137658028D01*
X53614284Y-137658028D02*
X53699999Y-137743742D01*
X53699999Y-137743742D02*
X53785713Y-137915171D01*
X53785713Y-137915171D02*
X53871427Y-138258028D01*
X53871427Y-138258028D02*
X53871427Y-138686600D01*
X53871427Y-138686600D02*
X53785713Y-139029457D01*
X53785713Y-139029457D02*
X53699999Y-139200885D01*
X53699999Y-139200885D02*
X53614284Y-139286600D01*
X53614284Y-139286600D02*
X53442856Y-139372314D01*
X53442856Y-139372314D02*
X53271427Y-139372314D01*
X53271427Y-139372314D02*
X53099999Y-139286600D01*
X53099999Y-139286600D02*
X53014284Y-139200885D01*
X53014284Y-139200885D02*
X52928570Y-139029457D01*
X52928570Y-139029457D02*
X52842856Y-138686600D01*
X52842856Y-138686600D02*
X52842856Y-138258028D01*
X52842856Y-138258028D02*
X52928570Y-137915171D01*
X52928570Y-137915171D02*
X53014284Y-137743742D01*
X53014284Y-137743742D02*
X53099999Y-137658028D01*
X53099999Y-137658028D02*
X53271427Y-137572314D01*
X54985713Y-137572314D02*
X55157142Y-137572314D01*
X55157142Y-137572314D02*
X55328570Y-137658028D01*
X55328570Y-137658028D02*
X55414285Y-137743742D01*
X55414285Y-137743742D02*
X55499999Y-137915171D01*
X55499999Y-137915171D02*
X55585713Y-138258028D01*
X55585713Y-138258028D02*
X55585713Y-138686600D01*
X55585713Y-138686600D02*
X55499999Y-139029457D01*
X55499999Y-139029457D02*
X55414285Y-139200885D01*
X55414285Y-139200885D02*
X55328570Y-139286600D01*
X55328570Y-139286600D02*
X55157142Y-139372314D01*
X55157142Y-139372314D02*
X54985713Y-139372314D01*
X54985713Y-139372314D02*
X54814285Y-139286600D01*
X54814285Y-139286600D02*
X54728570Y-139200885D01*
X54728570Y-139200885D02*
X54642856Y-139029457D01*
X54642856Y-139029457D02*
X54557142Y-138686600D01*
X54557142Y-138686600D02*
X54557142Y-138258028D01*
X54557142Y-138258028D02*
X54642856Y-137915171D01*
X54642856Y-137915171D02*
X54728570Y-137743742D01*
X54728570Y-137743742D02*
X54814285Y-137658028D01*
X54814285Y-137658028D02*
X54985713Y-137572314D01*
X56271428Y-137743742D02*
X56357142Y-137658028D01*
X56357142Y-137658028D02*
X56528571Y-137572314D01*
X56528571Y-137572314D02*
X56957142Y-137572314D01*
X56957142Y-137572314D02*
X57128571Y-137658028D01*
X57128571Y-137658028D02*
X57214285Y-137743742D01*
X57214285Y-137743742D02*
X57299999Y-137915171D01*
X57299999Y-137915171D02*
X57299999Y-138086600D01*
X57299999Y-138086600D02*
X57214285Y-138343742D01*
X57214285Y-138343742D02*
X56185713Y-139372314D01*
X56185713Y-139372314D02*
X57299999Y-139372314D01*
X57899999Y-137572314D02*
X59099999Y-137572314D01*
X59099999Y-137572314D02*
X58328571Y-139372314D01*
X59614285Y-137572314D02*
X60728571Y-137572314D01*
X60728571Y-137572314D02*
X60128571Y-138258028D01*
X60128571Y-138258028D02*
X60385714Y-138258028D01*
X60385714Y-138258028D02*
X60557143Y-138343742D01*
X60557143Y-138343742D02*
X60642857Y-138429457D01*
X60642857Y-138429457D02*
X60728571Y-138600885D01*
X60728571Y-138600885D02*
X60728571Y-139029457D01*
X60728571Y-139029457D02*
X60642857Y-139200885D01*
X60642857Y-139200885D02*
X60557143Y-139286600D01*
X60557143Y-139286600D02*
X60385714Y-139372314D01*
X60385714Y-139372314D02*
X59871428Y-139372314D01*
X59871428Y-139372314D02*
X59700000Y-139286600D01*
X59700000Y-139286600D02*
X59614285Y-139200885D01*
X61500000Y-138686600D02*
X62871429Y-138686600D01*
X63642857Y-138858028D02*
X64500000Y-138858028D01*
X63471428Y-139372314D02*
X64071428Y-137572314D01*
X64071428Y-137572314D02*
X64671428Y-139372314D01*
X64842857Y-139543742D02*
X66214285Y-139543742D01*
X66642857Y-139372314D02*
X66642857Y-137572314D01*
X66642857Y-137572314D02*
X67328571Y-137572314D01*
X67328571Y-137572314D02*
X67500000Y-137658028D01*
X67500000Y-137658028D02*
X67585714Y-137743742D01*
X67585714Y-137743742D02*
X67671428Y-137915171D01*
X67671428Y-137915171D02*
X67671428Y-138172314D01*
X67671428Y-138172314D02*
X67585714Y-138343742D01*
X67585714Y-138343742D02*
X67500000Y-138429457D01*
X67500000Y-138429457D02*
X67328571Y-138515171D01*
X67328571Y-138515171D02*
X66642857Y-138515171D01*
X69471428Y-139200885D02*
X69385714Y-139286600D01*
X69385714Y-139286600D02*
X69128571Y-139372314D01*
X69128571Y-139372314D02*
X68957143Y-139372314D01*
X68957143Y-139372314D02*
X68700000Y-139286600D01*
X68700000Y-139286600D02*
X68528571Y-139115171D01*
X68528571Y-139115171D02*
X68442857Y-138943742D01*
X68442857Y-138943742D02*
X68357143Y-138600885D01*
X68357143Y-138600885D02*
X68357143Y-138343742D01*
X68357143Y-138343742D02*
X68442857Y-138000885D01*
X68442857Y-138000885D02*
X68528571Y-137829457D01*
X68528571Y-137829457D02*
X68700000Y-137658028D01*
X68700000Y-137658028D02*
X68957143Y-137572314D01*
X68957143Y-137572314D02*
X69128571Y-137572314D01*
X69128571Y-137572314D02*
X69385714Y-137658028D01*
X69385714Y-137658028D02*
X69471428Y-137743742D01*
X70842857Y-138429457D02*
X71100000Y-138515171D01*
X71100000Y-138515171D02*
X71185714Y-138600885D01*
X71185714Y-138600885D02*
X71271428Y-138772314D01*
X71271428Y-138772314D02*
X71271428Y-139029457D01*
X71271428Y-139029457D02*
X71185714Y-139200885D01*
X71185714Y-139200885D02*
X71100000Y-139286600D01*
X71100000Y-139286600D02*
X70928571Y-139372314D01*
X70928571Y-139372314D02*
X70242857Y-139372314D01*
X70242857Y-139372314D02*
X70242857Y-137572314D01*
X70242857Y-137572314D02*
X70842857Y-137572314D01*
X70842857Y-137572314D02*
X71014286Y-137658028D01*
X71014286Y-137658028D02*
X71100000Y-137743742D01*
X71100000Y-137743742D02*
X71185714Y-137915171D01*
X71185714Y-137915171D02*
X71185714Y-138086600D01*
X71185714Y-138086600D02*
X71100000Y-138258028D01*
X71100000Y-138258028D02*
X71014286Y-138343742D01*
X71014286Y-138343742D02*
X70842857Y-138429457D01*
X70842857Y-138429457D02*
X70242857Y-138429457D01*
X71957143Y-138858028D02*
X72814286Y-138858028D01*
X71785714Y-139372314D02*
X72385714Y-137572314D01*
X72385714Y-137572314D02*
X72985714Y-139372314D01*
X74957143Y-137572314D02*
X74957143Y-139029457D01*
X74957143Y-139029457D02*
X75042857Y-139200885D01*
X75042857Y-139200885D02*
X75128572Y-139286600D01*
X75128572Y-139286600D02*
X75300000Y-139372314D01*
X75300000Y-139372314D02*
X75642857Y-139372314D01*
X75642857Y-139372314D02*
X75814286Y-139286600D01*
X75814286Y-139286600D02*
X75900000Y-139200885D01*
X75900000Y-139200885D02*
X75985714Y-139029457D01*
X75985714Y-139029457D02*
X75985714Y-137572314D01*
X76842857Y-139372314D02*
X76842857Y-137572314D01*
X79071429Y-138429457D02*
X79671429Y-138429457D01*
X79928572Y-139372314D02*
X79071429Y-139372314D01*
X79071429Y-139372314D02*
X79071429Y-137572314D01*
X79071429Y-137572314D02*
X79928572Y-137572314D01*
X80614286Y-139286600D02*
X80871429Y-139372314D01*
X80871429Y-139372314D02*
X81300000Y-139372314D01*
X81300000Y-139372314D02*
X81471429Y-139286600D01*
X81471429Y-139286600D02*
X81557143Y-139200885D01*
X81557143Y-139200885D02*
X81642857Y-139029457D01*
X81642857Y-139029457D02*
X81642857Y-138858028D01*
X81642857Y-138858028D02*
X81557143Y-138686600D01*
X81557143Y-138686600D02*
X81471429Y-138600885D01*
X81471429Y-138600885D02*
X81300000Y-138515171D01*
X81300000Y-138515171D02*
X80957143Y-138429457D01*
X80957143Y-138429457D02*
X80785714Y-138343742D01*
X80785714Y-138343742D02*
X80700000Y-138258028D01*
X80700000Y-138258028D02*
X80614286Y-138086600D01*
X80614286Y-138086600D02*
X80614286Y-137915171D01*
X80614286Y-137915171D02*
X80700000Y-137743742D01*
X80700000Y-137743742D02*
X80785714Y-137658028D01*
X80785714Y-137658028D02*
X80957143Y-137572314D01*
X80957143Y-137572314D02*
X81385714Y-137572314D01*
X81385714Y-137572314D02*
X81642857Y-137658028D01*
X82414286Y-139372314D02*
X82414286Y-137572314D01*
X82414286Y-137572314D02*
X83100000Y-137572314D01*
X83100000Y-137572314D02*
X83271429Y-137658028D01*
X83271429Y-137658028D02*
X83357143Y-137743742D01*
X83357143Y-137743742D02*
X83442857Y-137915171D01*
X83442857Y-137915171D02*
X83442857Y-138172314D01*
X83442857Y-138172314D02*
X83357143Y-138343742D01*
X83357143Y-138343742D02*
X83271429Y-138429457D01*
X83271429Y-138429457D02*
X83100000Y-138515171D01*
X83100000Y-138515171D02*
X82414286Y-138515171D01*
X84042857Y-137572314D02*
X85157143Y-137572314D01*
X85157143Y-137572314D02*
X84557143Y-138258028D01*
X84557143Y-138258028D02*
X84814286Y-138258028D01*
X84814286Y-138258028D02*
X84985715Y-138343742D01*
X84985715Y-138343742D02*
X85071429Y-138429457D01*
X85071429Y-138429457D02*
X85157143Y-138600885D01*
X85157143Y-138600885D02*
X85157143Y-139029457D01*
X85157143Y-139029457D02*
X85071429Y-139200885D01*
X85071429Y-139200885D02*
X84985715Y-139286600D01*
X84985715Y-139286600D02*
X84814286Y-139372314D01*
X84814286Y-139372314D02*
X84300000Y-139372314D01*
X84300000Y-139372314D02*
X84128572Y-139286600D01*
X84128572Y-139286600D02*
X84042857Y-139200885D01*
X85842858Y-137743742D02*
X85928572Y-137658028D01*
X85928572Y-137658028D02*
X86100001Y-137572314D01*
X86100001Y-137572314D02*
X86528572Y-137572314D01*
X86528572Y-137572314D02*
X86700001Y-137658028D01*
X86700001Y-137658028D02*
X86785715Y-137743742D01*
X86785715Y-137743742D02*
X86871429Y-137915171D01*
X86871429Y-137915171D02*
X86871429Y-138086600D01*
X86871429Y-138086600D02*
X86785715Y-138343742D01*
X86785715Y-138343742D02*
X85757143Y-139372314D01*
X85757143Y-139372314D02*
X86871429Y-139372314D01*
D10*
X113483333Y-113013855D02*
X113483333Y-113585283D01*
X113483333Y-113585283D02*
X113445238Y-113699569D01*
X113445238Y-113699569D02*
X113369047Y-113775760D01*
X113369047Y-113775760D02*
X113254762Y-113813855D01*
X113254762Y-113813855D02*
X113178571Y-113813855D01*
X114245238Y-113013855D02*
X113864286Y-113013855D01*
X113864286Y-113013855D02*
X113826190Y-113394807D01*
X113826190Y-113394807D02*
X113864286Y-113356712D01*
X113864286Y-113356712D02*
X113940476Y-113318617D01*
X113940476Y-113318617D02*
X114130952Y-113318617D01*
X114130952Y-113318617D02*
X114207143Y-113356712D01*
X114207143Y-113356712D02*
X114245238Y-113394807D01*
X114245238Y-113394807D02*
X114283333Y-113470998D01*
X114283333Y-113470998D02*
X114283333Y-113661474D01*
X114283333Y-113661474D02*
X114245238Y-113737664D01*
X114245238Y-113737664D02*
X114207143Y-113775760D01*
X114207143Y-113775760D02*
X114130952Y-113813855D01*
X114130952Y-113813855D02*
X113940476Y-113813855D01*
X113940476Y-113813855D02*
X113864286Y-113775760D01*
X113864286Y-113775760D02*
X113826190Y-113737664D01*
X107213855Y-110514285D02*
X106832902Y-110780952D01*
X107213855Y-110971428D02*
X106413855Y-110971428D01*
X106413855Y-110971428D02*
X106413855Y-110666666D01*
X106413855Y-110666666D02*
X106451950Y-110590476D01*
X106451950Y-110590476D02*
X106490045Y-110552381D01*
X106490045Y-110552381D02*
X106566236Y-110514285D01*
X106566236Y-110514285D02*
X106680521Y-110514285D01*
X106680521Y-110514285D02*
X106756712Y-110552381D01*
X106756712Y-110552381D02*
X106794807Y-110590476D01*
X106794807Y-110590476D02*
X106832902Y-110666666D01*
X106832902Y-110666666D02*
X106832902Y-110971428D01*
X107213855Y-109752381D02*
X107213855Y-110209524D01*
X107213855Y-109980952D02*
X106413855Y-109980952D01*
X106413855Y-109980952D02*
X106528140Y-110057143D01*
X106528140Y-110057143D02*
X106604331Y-110133333D01*
X106604331Y-110133333D02*
X106642426Y-110209524D01*
X106490045Y-109447619D02*
X106451950Y-109409523D01*
X106451950Y-109409523D02*
X106413855Y-109333333D01*
X106413855Y-109333333D02*
X106413855Y-109142857D01*
X106413855Y-109142857D02*
X106451950Y-109066666D01*
X106451950Y-109066666D02*
X106490045Y-109028571D01*
X106490045Y-109028571D02*
X106566236Y-108990476D01*
X106566236Y-108990476D02*
X106642426Y-108990476D01*
X106642426Y-108990476D02*
X106756712Y-109028571D01*
X106756712Y-109028571D02*
X107213855Y-109485714D01*
X107213855Y-109485714D02*
X107213855Y-108990476D01*
X98263855Y-76064285D02*
X97882902Y-76330952D01*
X98263855Y-76521428D02*
X97463855Y-76521428D01*
X97463855Y-76521428D02*
X97463855Y-76216666D01*
X97463855Y-76216666D02*
X97501950Y-76140476D01*
X97501950Y-76140476D02*
X97540045Y-76102381D01*
X97540045Y-76102381D02*
X97616236Y-76064285D01*
X97616236Y-76064285D02*
X97730521Y-76064285D01*
X97730521Y-76064285D02*
X97806712Y-76102381D01*
X97806712Y-76102381D02*
X97844807Y-76140476D01*
X97844807Y-76140476D02*
X97882902Y-76216666D01*
X97882902Y-76216666D02*
X97882902Y-76521428D01*
X97540045Y-75759524D02*
X97501950Y-75721428D01*
X97501950Y-75721428D02*
X97463855Y-75645238D01*
X97463855Y-75645238D02*
X97463855Y-75454762D01*
X97463855Y-75454762D02*
X97501950Y-75378571D01*
X97501950Y-75378571D02*
X97540045Y-75340476D01*
X97540045Y-75340476D02*
X97616236Y-75302381D01*
X97616236Y-75302381D02*
X97692426Y-75302381D01*
X97692426Y-75302381D02*
X97806712Y-75340476D01*
X97806712Y-75340476D02*
X98263855Y-75797619D01*
X98263855Y-75797619D02*
X98263855Y-75302381D01*
X98263855Y-74540476D02*
X98263855Y-74997619D01*
X98263855Y-74769047D02*
X97463855Y-74769047D01*
X97463855Y-74769047D02*
X97578140Y-74845238D01*
X97578140Y-74845238D02*
X97654331Y-74921428D01*
X97654331Y-74921428D02*
X97692426Y-74997619D01*
X76463855Y-84390475D02*
X75663855Y-84390475D01*
X75663855Y-84390475D02*
X75663855Y-84199999D01*
X75663855Y-84199999D02*
X75701950Y-84085713D01*
X75701950Y-84085713D02*
X75778140Y-84009523D01*
X75778140Y-84009523D02*
X75854331Y-83971428D01*
X75854331Y-83971428D02*
X76006712Y-83933332D01*
X76006712Y-83933332D02*
X76120998Y-83933332D01*
X76120998Y-83933332D02*
X76273379Y-83971428D01*
X76273379Y-83971428D02*
X76349569Y-84009523D01*
X76349569Y-84009523D02*
X76425760Y-84085713D01*
X76425760Y-84085713D02*
X76463855Y-84199999D01*
X76463855Y-84199999D02*
X76463855Y-84390475D01*
X76463855Y-83171428D02*
X76463855Y-83628571D01*
X76463855Y-83399999D02*
X75663855Y-83399999D01*
X75663855Y-83399999D02*
X75778140Y-83476190D01*
X75778140Y-83476190D02*
X75854331Y-83552380D01*
X75854331Y-83552380D02*
X75892426Y-83628571D01*
X99690476Y-83413855D02*
X99690476Y-84061474D01*
X99690476Y-84061474D02*
X99728571Y-84137664D01*
X99728571Y-84137664D02*
X99766666Y-84175760D01*
X99766666Y-84175760D02*
X99842857Y-84213855D01*
X99842857Y-84213855D02*
X99995238Y-84213855D01*
X99995238Y-84213855D02*
X100071428Y-84175760D01*
X100071428Y-84175760D02*
X100109523Y-84137664D01*
X100109523Y-84137664D02*
X100147619Y-84061474D01*
X100147619Y-84061474D02*
X100147619Y-83413855D01*
X100566666Y-84213855D02*
X100719047Y-84213855D01*
X100719047Y-84213855D02*
X100795237Y-84175760D01*
X100795237Y-84175760D02*
X100833333Y-84137664D01*
X100833333Y-84137664D02*
X100909523Y-84023379D01*
X100909523Y-84023379D02*
X100947618Y-83870998D01*
X100947618Y-83870998D02*
X100947618Y-83566236D01*
X100947618Y-83566236D02*
X100909523Y-83490045D01*
X100909523Y-83490045D02*
X100871428Y-83451950D01*
X100871428Y-83451950D02*
X100795237Y-83413855D01*
X100795237Y-83413855D02*
X100642856Y-83413855D01*
X100642856Y-83413855D02*
X100566666Y-83451950D01*
X100566666Y-83451950D02*
X100528571Y-83490045D01*
X100528571Y-83490045D02*
X100490475Y-83566236D01*
X100490475Y-83566236D02*
X100490475Y-83756712D01*
X100490475Y-83756712D02*
X100528571Y-83832902D01*
X100528571Y-83832902D02*
X100566666Y-83870998D01*
X100566666Y-83870998D02*
X100642856Y-83909093D01*
X100642856Y-83909093D02*
X100795237Y-83909093D01*
X100795237Y-83909093D02*
X100871428Y-83870998D01*
X100871428Y-83870998D02*
X100909523Y-83832902D01*
X100909523Y-83832902D02*
X100947618Y-83756712D01*
X75913855Y-118133332D02*
X75532902Y-118399999D01*
X75913855Y-118590475D02*
X75113855Y-118590475D01*
X75113855Y-118590475D02*
X75113855Y-118285713D01*
X75113855Y-118285713D02*
X75151950Y-118209523D01*
X75151950Y-118209523D02*
X75190045Y-118171428D01*
X75190045Y-118171428D02*
X75266236Y-118133332D01*
X75266236Y-118133332D02*
X75380521Y-118133332D01*
X75380521Y-118133332D02*
X75456712Y-118171428D01*
X75456712Y-118171428D02*
X75494807Y-118209523D01*
X75494807Y-118209523D02*
X75532902Y-118285713D01*
X75532902Y-118285713D02*
X75532902Y-118590475D01*
X75113855Y-117866666D02*
X75113855Y-117333332D01*
X75113855Y-117333332D02*
X75913855Y-117676190D01*
X68417664Y-111584285D02*
X68455760Y-111622381D01*
X68455760Y-111622381D02*
X68493855Y-111736666D01*
X68493855Y-111736666D02*
X68493855Y-111812857D01*
X68493855Y-111812857D02*
X68455760Y-111927143D01*
X68455760Y-111927143D02*
X68379569Y-112003333D01*
X68379569Y-112003333D02*
X68303379Y-112041428D01*
X68303379Y-112041428D02*
X68150998Y-112079524D01*
X68150998Y-112079524D02*
X68036712Y-112079524D01*
X68036712Y-112079524D02*
X67884331Y-112041428D01*
X67884331Y-112041428D02*
X67808140Y-112003333D01*
X67808140Y-112003333D02*
X67731950Y-111927143D01*
X67731950Y-111927143D02*
X67693855Y-111812857D01*
X67693855Y-111812857D02*
X67693855Y-111736666D01*
X67693855Y-111736666D02*
X67731950Y-111622381D01*
X67731950Y-111622381D02*
X67770045Y-111584285D01*
X67770045Y-111279524D02*
X67731950Y-111241428D01*
X67731950Y-111241428D02*
X67693855Y-111165238D01*
X67693855Y-111165238D02*
X67693855Y-110974762D01*
X67693855Y-110974762D02*
X67731950Y-110898571D01*
X67731950Y-110898571D02*
X67770045Y-110860476D01*
X67770045Y-110860476D02*
X67846236Y-110822381D01*
X67846236Y-110822381D02*
X67922426Y-110822381D01*
X67922426Y-110822381D02*
X68036712Y-110860476D01*
X68036712Y-110860476D02*
X68493855Y-111317619D01*
X68493855Y-111317619D02*
X68493855Y-110822381D01*
X68493855Y-110060476D02*
X68493855Y-110517619D01*
X68493855Y-110289047D02*
X67693855Y-110289047D01*
X67693855Y-110289047D02*
X67808140Y-110365238D01*
X67808140Y-110365238D02*
X67884331Y-110441428D01*
X67884331Y-110441428D02*
X67922426Y-110517619D01*
X103613855Y-59509523D02*
X104261474Y-59509523D01*
X104261474Y-59509523D02*
X104337664Y-59471428D01*
X104337664Y-59471428D02*
X104375760Y-59433333D01*
X104375760Y-59433333D02*
X104413855Y-59357142D01*
X104413855Y-59357142D02*
X104413855Y-59204761D01*
X104413855Y-59204761D02*
X104375760Y-59128571D01*
X104375760Y-59128571D02*
X104337664Y-59090476D01*
X104337664Y-59090476D02*
X104261474Y-59052380D01*
X104261474Y-59052380D02*
X103613855Y-59052380D01*
X104413855Y-58252381D02*
X104413855Y-58709524D01*
X104413855Y-58480952D02*
X103613855Y-58480952D01*
X103613855Y-58480952D02*
X103728140Y-58557143D01*
X103728140Y-58557143D02*
X103804331Y-58633333D01*
X103804331Y-58633333D02*
X103842426Y-58709524D01*
X105240045Y-69376190D02*
X105201950Y-69452380D01*
X105201950Y-69452380D02*
X105125760Y-69528571D01*
X105125760Y-69528571D02*
X105011474Y-69642857D01*
X105011474Y-69642857D02*
X104973379Y-69719047D01*
X104973379Y-69719047D02*
X104973379Y-69795238D01*
X105163855Y-69757142D02*
X105125760Y-69833333D01*
X105125760Y-69833333D02*
X105049569Y-69909523D01*
X105049569Y-69909523D02*
X104897188Y-69947619D01*
X104897188Y-69947619D02*
X104630521Y-69947619D01*
X104630521Y-69947619D02*
X104478140Y-69909523D01*
X104478140Y-69909523D02*
X104401950Y-69833333D01*
X104401950Y-69833333D02*
X104363855Y-69757142D01*
X104363855Y-69757142D02*
X104363855Y-69604761D01*
X104363855Y-69604761D02*
X104401950Y-69528571D01*
X104401950Y-69528571D02*
X104478140Y-69452380D01*
X104478140Y-69452380D02*
X104630521Y-69414285D01*
X104630521Y-69414285D02*
X104897188Y-69414285D01*
X104897188Y-69414285D02*
X105049569Y-69452380D01*
X105049569Y-69452380D02*
X105125760Y-69528571D01*
X105125760Y-69528571D02*
X105163855Y-69604761D01*
X105163855Y-69604761D02*
X105163855Y-69757142D01*
X105163855Y-68652381D02*
X105163855Y-69109524D01*
X105163855Y-68880952D02*
X104363855Y-68880952D01*
X104363855Y-68880952D02*
X104478140Y-68957143D01*
X104478140Y-68957143D02*
X104554331Y-69033333D01*
X104554331Y-69033333D02*
X104592426Y-69109524D01*
X96763855Y-76064285D02*
X96382902Y-76330952D01*
X96763855Y-76521428D02*
X95963855Y-76521428D01*
X95963855Y-76521428D02*
X95963855Y-76216666D01*
X95963855Y-76216666D02*
X96001950Y-76140476D01*
X96001950Y-76140476D02*
X96040045Y-76102381D01*
X96040045Y-76102381D02*
X96116236Y-76064285D01*
X96116236Y-76064285D02*
X96230521Y-76064285D01*
X96230521Y-76064285D02*
X96306712Y-76102381D01*
X96306712Y-76102381D02*
X96344807Y-76140476D01*
X96344807Y-76140476D02*
X96382902Y-76216666D01*
X96382902Y-76216666D02*
X96382902Y-76521428D01*
X96763855Y-75302381D02*
X96763855Y-75759524D01*
X96763855Y-75530952D02*
X95963855Y-75530952D01*
X95963855Y-75530952D02*
X96078140Y-75607143D01*
X96078140Y-75607143D02*
X96154331Y-75683333D01*
X96154331Y-75683333D02*
X96192426Y-75759524D01*
X96306712Y-74845238D02*
X96268617Y-74921428D01*
X96268617Y-74921428D02*
X96230521Y-74959523D01*
X96230521Y-74959523D02*
X96154331Y-74997619D01*
X96154331Y-74997619D02*
X96116236Y-74997619D01*
X96116236Y-74997619D02*
X96040045Y-74959523D01*
X96040045Y-74959523D02*
X96001950Y-74921428D01*
X96001950Y-74921428D02*
X95963855Y-74845238D01*
X95963855Y-74845238D02*
X95963855Y-74692857D01*
X95963855Y-74692857D02*
X96001950Y-74616666D01*
X96001950Y-74616666D02*
X96040045Y-74578571D01*
X96040045Y-74578571D02*
X96116236Y-74540476D01*
X96116236Y-74540476D02*
X96154331Y-74540476D01*
X96154331Y-74540476D02*
X96230521Y-74578571D01*
X96230521Y-74578571D02*
X96268617Y-74616666D01*
X96268617Y-74616666D02*
X96306712Y-74692857D01*
X96306712Y-74692857D02*
X96306712Y-74845238D01*
X96306712Y-74845238D02*
X96344807Y-74921428D01*
X96344807Y-74921428D02*
X96382902Y-74959523D01*
X96382902Y-74959523D02*
X96459093Y-74997619D01*
X96459093Y-74997619D02*
X96611474Y-74997619D01*
X96611474Y-74997619D02*
X96687664Y-74959523D01*
X96687664Y-74959523D02*
X96725760Y-74921428D01*
X96725760Y-74921428D02*
X96763855Y-74845238D01*
X96763855Y-74845238D02*
X96763855Y-74692857D01*
X96763855Y-74692857D02*
X96725760Y-74616666D01*
X96725760Y-74616666D02*
X96687664Y-74578571D01*
X96687664Y-74578571D02*
X96611474Y-74540476D01*
X96611474Y-74540476D02*
X96459093Y-74540476D01*
X96459093Y-74540476D02*
X96382902Y-74578571D01*
X96382902Y-74578571D02*
X96344807Y-74616666D01*
X96344807Y-74616666D02*
X96306712Y-74692857D01*
X121490476Y-76863855D02*
X121490476Y-77511474D01*
X121490476Y-77511474D02*
X121528571Y-77587664D01*
X121528571Y-77587664D02*
X121566666Y-77625760D01*
X121566666Y-77625760D02*
X121642857Y-77663855D01*
X121642857Y-77663855D02*
X121795238Y-77663855D01*
X121795238Y-77663855D02*
X121871428Y-77625760D01*
X121871428Y-77625760D02*
X121909523Y-77587664D01*
X121909523Y-77587664D02*
X121947619Y-77511474D01*
X121947619Y-77511474D02*
X121947619Y-76863855D01*
X122442856Y-77206712D02*
X122366666Y-77168617D01*
X122366666Y-77168617D02*
X122328571Y-77130521D01*
X122328571Y-77130521D02*
X122290475Y-77054331D01*
X122290475Y-77054331D02*
X122290475Y-77016236D01*
X122290475Y-77016236D02*
X122328571Y-76940045D01*
X122328571Y-76940045D02*
X122366666Y-76901950D01*
X122366666Y-76901950D02*
X122442856Y-76863855D01*
X122442856Y-76863855D02*
X122595237Y-76863855D01*
X122595237Y-76863855D02*
X122671428Y-76901950D01*
X122671428Y-76901950D02*
X122709523Y-76940045D01*
X122709523Y-76940045D02*
X122747618Y-77016236D01*
X122747618Y-77016236D02*
X122747618Y-77054331D01*
X122747618Y-77054331D02*
X122709523Y-77130521D01*
X122709523Y-77130521D02*
X122671428Y-77168617D01*
X122671428Y-77168617D02*
X122595237Y-77206712D01*
X122595237Y-77206712D02*
X122442856Y-77206712D01*
X122442856Y-77206712D02*
X122366666Y-77244807D01*
X122366666Y-77244807D02*
X122328571Y-77282902D01*
X122328571Y-77282902D02*
X122290475Y-77359093D01*
X122290475Y-77359093D02*
X122290475Y-77511474D01*
X122290475Y-77511474D02*
X122328571Y-77587664D01*
X122328571Y-77587664D02*
X122366666Y-77625760D01*
X122366666Y-77625760D02*
X122442856Y-77663855D01*
X122442856Y-77663855D02*
X122595237Y-77663855D01*
X122595237Y-77663855D02*
X122671428Y-77625760D01*
X122671428Y-77625760D02*
X122709523Y-77587664D01*
X122709523Y-77587664D02*
X122747618Y-77511474D01*
X122747618Y-77511474D02*
X122747618Y-77359093D01*
X122747618Y-77359093D02*
X122709523Y-77282902D01*
X122709523Y-77282902D02*
X122671428Y-77244807D01*
X122671428Y-77244807D02*
X122595237Y-77206712D01*
X95290045Y-69376190D02*
X95251950Y-69452380D01*
X95251950Y-69452380D02*
X95175760Y-69528571D01*
X95175760Y-69528571D02*
X95061474Y-69642857D01*
X95061474Y-69642857D02*
X95023379Y-69719047D01*
X95023379Y-69719047D02*
X95023379Y-69795238D01*
X95213855Y-69757142D02*
X95175760Y-69833333D01*
X95175760Y-69833333D02*
X95099569Y-69909523D01*
X95099569Y-69909523D02*
X94947188Y-69947619D01*
X94947188Y-69947619D02*
X94680521Y-69947619D01*
X94680521Y-69947619D02*
X94528140Y-69909523D01*
X94528140Y-69909523D02*
X94451950Y-69833333D01*
X94451950Y-69833333D02*
X94413855Y-69757142D01*
X94413855Y-69757142D02*
X94413855Y-69604761D01*
X94413855Y-69604761D02*
X94451950Y-69528571D01*
X94451950Y-69528571D02*
X94528140Y-69452380D01*
X94528140Y-69452380D02*
X94680521Y-69414285D01*
X94680521Y-69414285D02*
X94947188Y-69414285D01*
X94947188Y-69414285D02*
X95099569Y-69452380D01*
X95099569Y-69452380D02*
X95175760Y-69528571D01*
X95175760Y-69528571D02*
X95213855Y-69604761D01*
X95213855Y-69604761D02*
X95213855Y-69757142D01*
X94490045Y-69109524D02*
X94451950Y-69071428D01*
X94451950Y-69071428D02*
X94413855Y-68995238D01*
X94413855Y-68995238D02*
X94413855Y-68804762D01*
X94413855Y-68804762D02*
X94451950Y-68728571D01*
X94451950Y-68728571D02*
X94490045Y-68690476D01*
X94490045Y-68690476D02*
X94566236Y-68652381D01*
X94566236Y-68652381D02*
X94642426Y-68652381D01*
X94642426Y-68652381D02*
X94756712Y-68690476D01*
X94756712Y-68690476D02*
X95213855Y-69147619D01*
X95213855Y-69147619D02*
X95213855Y-68652381D01*
X102333333Y-58163855D02*
X102333333Y-58735283D01*
X102333333Y-58735283D02*
X102295238Y-58849569D01*
X102295238Y-58849569D02*
X102219047Y-58925760D01*
X102219047Y-58925760D02*
X102104762Y-58963855D01*
X102104762Y-58963855D02*
X102028571Y-58963855D01*
X102638095Y-58163855D02*
X103133333Y-58163855D01*
X103133333Y-58163855D02*
X102866667Y-58468617D01*
X102866667Y-58468617D02*
X102980952Y-58468617D01*
X102980952Y-58468617D02*
X103057143Y-58506712D01*
X103057143Y-58506712D02*
X103095238Y-58544807D01*
X103095238Y-58544807D02*
X103133333Y-58620998D01*
X103133333Y-58620998D02*
X103133333Y-58811474D01*
X103133333Y-58811474D02*
X103095238Y-58887664D01*
X103095238Y-58887664D02*
X103057143Y-58925760D01*
X103057143Y-58925760D02*
X102980952Y-58963855D01*
X102980952Y-58963855D02*
X102752381Y-58963855D01*
X102752381Y-58963855D02*
X102676190Y-58925760D01*
X102676190Y-58925760D02*
X102638095Y-58887664D01*
X91363855Y-53964285D02*
X90982902Y-54230952D01*
X91363855Y-54421428D02*
X90563855Y-54421428D01*
X90563855Y-54421428D02*
X90563855Y-54116666D01*
X90563855Y-54116666D02*
X90601950Y-54040476D01*
X90601950Y-54040476D02*
X90640045Y-54002381D01*
X90640045Y-54002381D02*
X90716236Y-53964285D01*
X90716236Y-53964285D02*
X90830521Y-53964285D01*
X90830521Y-53964285D02*
X90906712Y-54002381D01*
X90906712Y-54002381D02*
X90944807Y-54040476D01*
X90944807Y-54040476D02*
X90982902Y-54116666D01*
X90982902Y-54116666D02*
X90982902Y-54421428D01*
X91363855Y-53202381D02*
X91363855Y-53659524D01*
X91363855Y-53430952D02*
X90563855Y-53430952D01*
X90563855Y-53430952D02*
X90678140Y-53507143D01*
X90678140Y-53507143D02*
X90754331Y-53583333D01*
X90754331Y-53583333D02*
X90792426Y-53659524D01*
X90563855Y-52516666D02*
X90563855Y-52669047D01*
X90563855Y-52669047D02*
X90601950Y-52745238D01*
X90601950Y-52745238D02*
X90640045Y-52783333D01*
X90640045Y-52783333D02*
X90754331Y-52859523D01*
X90754331Y-52859523D02*
X90906712Y-52897619D01*
X90906712Y-52897619D02*
X91211474Y-52897619D01*
X91211474Y-52897619D02*
X91287664Y-52859523D01*
X91287664Y-52859523D02*
X91325760Y-52821428D01*
X91325760Y-52821428D02*
X91363855Y-52745238D01*
X91363855Y-52745238D02*
X91363855Y-52592857D01*
X91363855Y-52592857D02*
X91325760Y-52516666D01*
X91325760Y-52516666D02*
X91287664Y-52478571D01*
X91287664Y-52478571D02*
X91211474Y-52440476D01*
X91211474Y-52440476D02*
X91020998Y-52440476D01*
X91020998Y-52440476D02*
X90944807Y-52478571D01*
X90944807Y-52478571D02*
X90906712Y-52516666D01*
X90906712Y-52516666D02*
X90868617Y-52592857D01*
X90868617Y-52592857D02*
X90868617Y-52745238D01*
X90868617Y-52745238D02*
X90906712Y-52821428D01*
X90906712Y-52821428D02*
X90944807Y-52859523D01*
X90944807Y-52859523D02*
X91020998Y-52897619D01*
X99763855Y-76064285D02*
X99382902Y-76330952D01*
X99763855Y-76521428D02*
X98963855Y-76521428D01*
X98963855Y-76521428D02*
X98963855Y-76216666D01*
X98963855Y-76216666D02*
X99001950Y-76140476D01*
X99001950Y-76140476D02*
X99040045Y-76102381D01*
X99040045Y-76102381D02*
X99116236Y-76064285D01*
X99116236Y-76064285D02*
X99230521Y-76064285D01*
X99230521Y-76064285D02*
X99306712Y-76102381D01*
X99306712Y-76102381D02*
X99344807Y-76140476D01*
X99344807Y-76140476D02*
X99382902Y-76216666D01*
X99382902Y-76216666D02*
X99382902Y-76521428D01*
X99040045Y-75759524D02*
X99001950Y-75721428D01*
X99001950Y-75721428D02*
X98963855Y-75645238D01*
X98963855Y-75645238D02*
X98963855Y-75454762D01*
X98963855Y-75454762D02*
X99001950Y-75378571D01*
X99001950Y-75378571D02*
X99040045Y-75340476D01*
X99040045Y-75340476D02*
X99116236Y-75302381D01*
X99116236Y-75302381D02*
X99192426Y-75302381D01*
X99192426Y-75302381D02*
X99306712Y-75340476D01*
X99306712Y-75340476D02*
X99763855Y-75797619D01*
X99763855Y-75797619D02*
X99763855Y-75302381D01*
X98963855Y-74807142D02*
X98963855Y-74730952D01*
X98963855Y-74730952D02*
X99001950Y-74654761D01*
X99001950Y-74654761D02*
X99040045Y-74616666D01*
X99040045Y-74616666D02*
X99116236Y-74578571D01*
X99116236Y-74578571D02*
X99268617Y-74540476D01*
X99268617Y-74540476D02*
X99459093Y-74540476D01*
X99459093Y-74540476D02*
X99611474Y-74578571D01*
X99611474Y-74578571D02*
X99687664Y-74616666D01*
X99687664Y-74616666D02*
X99725760Y-74654761D01*
X99725760Y-74654761D02*
X99763855Y-74730952D01*
X99763855Y-74730952D02*
X99763855Y-74807142D01*
X99763855Y-74807142D02*
X99725760Y-74883333D01*
X99725760Y-74883333D02*
X99687664Y-74921428D01*
X99687664Y-74921428D02*
X99611474Y-74959523D01*
X99611474Y-74959523D02*
X99459093Y-74997619D01*
X99459093Y-74997619D02*
X99268617Y-74997619D01*
X99268617Y-74997619D02*
X99116236Y-74959523D01*
X99116236Y-74959523D02*
X99040045Y-74921428D01*
X99040045Y-74921428D02*
X99001950Y-74883333D01*
X99001950Y-74883333D02*
X98963855Y-74807142D01*
X77863855Y-118133332D02*
X77482902Y-118399999D01*
X77863855Y-118590475D02*
X77063855Y-118590475D01*
X77063855Y-118590475D02*
X77063855Y-118285713D01*
X77063855Y-118285713D02*
X77101950Y-118209523D01*
X77101950Y-118209523D02*
X77140045Y-118171428D01*
X77140045Y-118171428D02*
X77216236Y-118133332D01*
X77216236Y-118133332D02*
X77330521Y-118133332D01*
X77330521Y-118133332D02*
X77406712Y-118171428D01*
X77406712Y-118171428D02*
X77444807Y-118209523D01*
X77444807Y-118209523D02*
X77482902Y-118285713D01*
X77482902Y-118285713D02*
X77482902Y-118590475D01*
X77063855Y-117447618D02*
X77063855Y-117599999D01*
X77063855Y-117599999D02*
X77101950Y-117676190D01*
X77101950Y-117676190D02*
X77140045Y-117714285D01*
X77140045Y-117714285D02*
X77254331Y-117790475D01*
X77254331Y-117790475D02*
X77406712Y-117828571D01*
X77406712Y-117828571D02*
X77711474Y-117828571D01*
X77711474Y-117828571D02*
X77787664Y-117790475D01*
X77787664Y-117790475D02*
X77825760Y-117752380D01*
X77825760Y-117752380D02*
X77863855Y-117676190D01*
X77863855Y-117676190D02*
X77863855Y-117523809D01*
X77863855Y-117523809D02*
X77825760Y-117447618D01*
X77825760Y-117447618D02*
X77787664Y-117409523D01*
X77787664Y-117409523D02*
X77711474Y-117371428D01*
X77711474Y-117371428D02*
X77520998Y-117371428D01*
X77520998Y-117371428D02*
X77444807Y-117409523D01*
X77444807Y-117409523D02*
X77406712Y-117447618D01*
X77406712Y-117447618D02*
X77368617Y-117523809D01*
X77368617Y-117523809D02*
X77368617Y-117676190D01*
X77368617Y-117676190D02*
X77406712Y-117752380D01*
X77406712Y-117752380D02*
X77444807Y-117790475D01*
X77444807Y-117790475D02*
X77520998Y-117828571D01*
X108090476Y-72713855D02*
X108090476Y-73361474D01*
X108090476Y-73361474D02*
X108128571Y-73437664D01*
X108128571Y-73437664D02*
X108166666Y-73475760D01*
X108166666Y-73475760D02*
X108242857Y-73513855D01*
X108242857Y-73513855D02*
X108395238Y-73513855D01*
X108395238Y-73513855D02*
X108471428Y-73475760D01*
X108471428Y-73475760D02*
X108509523Y-73437664D01*
X108509523Y-73437664D02*
X108547619Y-73361474D01*
X108547619Y-73361474D02*
X108547619Y-72713855D01*
X109309523Y-72713855D02*
X108928571Y-72713855D01*
X108928571Y-72713855D02*
X108890475Y-73094807D01*
X108890475Y-73094807D02*
X108928571Y-73056712D01*
X108928571Y-73056712D02*
X109004761Y-73018617D01*
X109004761Y-73018617D02*
X109195237Y-73018617D01*
X109195237Y-73018617D02*
X109271428Y-73056712D01*
X109271428Y-73056712D02*
X109309523Y-73094807D01*
X109309523Y-73094807D02*
X109347618Y-73170998D01*
X109347618Y-73170998D02*
X109347618Y-73361474D01*
X109347618Y-73361474D02*
X109309523Y-73437664D01*
X109309523Y-73437664D02*
X109271428Y-73475760D01*
X109271428Y-73475760D02*
X109195237Y-73513855D01*
X109195237Y-73513855D02*
X109004761Y-73513855D01*
X109004761Y-73513855D02*
X108928571Y-73475760D01*
X108928571Y-73475760D02*
X108890475Y-73437664D01*
X133583333Y-74413855D02*
X133583333Y-74985283D01*
X133583333Y-74985283D02*
X133545238Y-75099569D01*
X133545238Y-75099569D02*
X133469047Y-75175760D01*
X133469047Y-75175760D02*
X133354762Y-75213855D01*
X133354762Y-75213855D02*
X133278571Y-75213855D01*
X134307143Y-74413855D02*
X134154762Y-74413855D01*
X134154762Y-74413855D02*
X134078571Y-74451950D01*
X134078571Y-74451950D02*
X134040476Y-74490045D01*
X134040476Y-74490045D02*
X133964286Y-74604331D01*
X133964286Y-74604331D02*
X133926190Y-74756712D01*
X133926190Y-74756712D02*
X133926190Y-75061474D01*
X133926190Y-75061474D02*
X133964286Y-75137664D01*
X133964286Y-75137664D02*
X134002381Y-75175760D01*
X134002381Y-75175760D02*
X134078571Y-75213855D01*
X134078571Y-75213855D02*
X134230952Y-75213855D01*
X134230952Y-75213855D02*
X134307143Y-75175760D01*
X134307143Y-75175760D02*
X134345238Y-75137664D01*
X134345238Y-75137664D02*
X134383333Y-75061474D01*
X134383333Y-75061474D02*
X134383333Y-74870998D01*
X134383333Y-74870998D02*
X134345238Y-74794807D01*
X134345238Y-74794807D02*
X134307143Y-74756712D01*
X134307143Y-74756712D02*
X134230952Y-74718617D01*
X134230952Y-74718617D02*
X134078571Y-74718617D01*
X134078571Y-74718617D02*
X134002381Y-74756712D01*
X134002381Y-74756712D02*
X133964286Y-74794807D01*
X133964286Y-74794807D02*
X133926190Y-74870998D01*
X59785714Y-110187664D02*
X59747618Y-110225760D01*
X59747618Y-110225760D02*
X59633333Y-110263855D01*
X59633333Y-110263855D02*
X59557142Y-110263855D01*
X59557142Y-110263855D02*
X59442856Y-110225760D01*
X59442856Y-110225760D02*
X59366666Y-110149569D01*
X59366666Y-110149569D02*
X59328571Y-110073379D01*
X59328571Y-110073379D02*
X59290475Y-109920998D01*
X59290475Y-109920998D02*
X59290475Y-109806712D01*
X59290475Y-109806712D02*
X59328571Y-109654331D01*
X59328571Y-109654331D02*
X59366666Y-109578140D01*
X59366666Y-109578140D02*
X59442856Y-109501950D01*
X59442856Y-109501950D02*
X59557142Y-109463855D01*
X59557142Y-109463855D02*
X59633333Y-109463855D01*
X59633333Y-109463855D02*
X59747618Y-109501950D01*
X59747618Y-109501950D02*
X59785714Y-109540045D01*
X60547618Y-110263855D02*
X60090475Y-110263855D01*
X60319047Y-110263855D02*
X60319047Y-109463855D01*
X60319047Y-109463855D02*
X60242856Y-109578140D01*
X60242856Y-109578140D02*
X60166666Y-109654331D01*
X60166666Y-109654331D02*
X60090475Y-109692426D01*
X61233333Y-109463855D02*
X61080952Y-109463855D01*
X61080952Y-109463855D02*
X61004761Y-109501950D01*
X61004761Y-109501950D02*
X60966666Y-109540045D01*
X60966666Y-109540045D02*
X60890476Y-109654331D01*
X60890476Y-109654331D02*
X60852380Y-109806712D01*
X60852380Y-109806712D02*
X60852380Y-110111474D01*
X60852380Y-110111474D02*
X60890476Y-110187664D01*
X60890476Y-110187664D02*
X60928571Y-110225760D01*
X60928571Y-110225760D02*
X61004761Y-110263855D01*
X61004761Y-110263855D02*
X61157142Y-110263855D01*
X61157142Y-110263855D02*
X61233333Y-110225760D01*
X61233333Y-110225760D02*
X61271428Y-110187664D01*
X61271428Y-110187664D02*
X61309523Y-110111474D01*
X61309523Y-110111474D02*
X61309523Y-109920998D01*
X61309523Y-109920998D02*
X61271428Y-109844807D01*
X61271428Y-109844807D02*
X61233333Y-109806712D01*
X61233333Y-109806712D02*
X61157142Y-109768617D01*
X61157142Y-109768617D02*
X61004761Y-109768617D01*
X61004761Y-109768617D02*
X60928571Y-109806712D01*
X60928571Y-109806712D02*
X60890476Y-109844807D01*
X60890476Y-109844807D02*
X60852380Y-109920998D01*
X74663855Y-84664285D02*
X74282902Y-84930952D01*
X74663855Y-85121428D02*
X73863855Y-85121428D01*
X73863855Y-85121428D02*
X73863855Y-84816666D01*
X73863855Y-84816666D02*
X73901950Y-84740476D01*
X73901950Y-84740476D02*
X73940045Y-84702381D01*
X73940045Y-84702381D02*
X74016236Y-84664285D01*
X74016236Y-84664285D02*
X74130521Y-84664285D01*
X74130521Y-84664285D02*
X74206712Y-84702381D01*
X74206712Y-84702381D02*
X74244807Y-84740476D01*
X74244807Y-84740476D02*
X74282902Y-84816666D01*
X74282902Y-84816666D02*
X74282902Y-85121428D01*
X74663855Y-83902381D02*
X74663855Y-84359524D01*
X74663855Y-84130952D02*
X73863855Y-84130952D01*
X73863855Y-84130952D02*
X73978140Y-84207143D01*
X73978140Y-84207143D02*
X74054331Y-84283333D01*
X74054331Y-84283333D02*
X74092426Y-84359524D01*
X73863855Y-83635714D02*
X73863855Y-83140476D01*
X73863855Y-83140476D02*
X74168617Y-83407142D01*
X74168617Y-83407142D02*
X74168617Y-83292857D01*
X74168617Y-83292857D02*
X74206712Y-83216666D01*
X74206712Y-83216666D02*
X74244807Y-83178571D01*
X74244807Y-83178571D02*
X74320998Y-83140476D01*
X74320998Y-83140476D02*
X74511474Y-83140476D01*
X74511474Y-83140476D02*
X74587664Y-83178571D01*
X74587664Y-83178571D02*
X74625760Y-83216666D01*
X74625760Y-83216666D02*
X74663855Y-83292857D01*
X74663855Y-83292857D02*
X74663855Y-83521428D01*
X74663855Y-83521428D02*
X74625760Y-83597619D01*
X74625760Y-83597619D02*
X74587664Y-83635714D01*
X72113855Y-118183332D02*
X71732902Y-118449999D01*
X72113855Y-118640475D02*
X71313855Y-118640475D01*
X71313855Y-118640475D02*
X71313855Y-118335713D01*
X71313855Y-118335713D02*
X71351950Y-118259523D01*
X71351950Y-118259523D02*
X71390045Y-118221428D01*
X71390045Y-118221428D02*
X71466236Y-118183332D01*
X71466236Y-118183332D02*
X71580521Y-118183332D01*
X71580521Y-118183332D02*
X71656712Y-118221428D01*
X71656712Y-118221428D02*
X71694807Y-118259523D01*
X71694807Y-118259523D02*
X71732902Y-118335713D01*
X71732902Y-118335713D02*
X71732902Y-118640475D01*
X71580521Y-117497618D02*
X72113855Y-117497618D01*
X71275760Y-117688094D02*
X71847188Y-117878571D01*
X71847188Y-117878571D02*
X71847188Y-117383332D01*
X74013855Y-118133332D02*
X73632902Y-118399999D01*
X74013855Y-118590475D02*
X73213855Y-118590475D01*
X73213855Y-118590475D02*
X73213855Y-118285713D01*
X73213855Y-118285713D02*
X73251950Y-118209523D01*
X73251950Y-118209523D02*
X73290045Y-118171428D01*
X73290045Y-118171428D02*
X73366236Y-118133332D01*
X73366236Y-118133332D02*
X73480521Y-118133332D01*
X73480521Y-118133332D02*
X73556712Y-118171428D01*
X73556712Y-118171428D02*
X73594807Y-118209523D01*
X73594807Y-118209523D02*
X73632902Y-118285713D01*
X73632902Y-118285713D02*
X73632902Y-118590475D01*
X73213855Y-117409523D02*
X73213855Y-117790475D01*
X73213855Y-117790475D02*
X73594807Y-117828571D01*
X73594807Y-117828571D02*
X73556712Y-117790475D01*
X73556712Y-117790475D02*
X73518617Y-117714285D01*
X73518617Y-117714285D02*
X73518617Y-117523809D01*
X73518617Y-117523809D02*
X73556712Y-117447618D01*
X73556712Y-117447618D02*
X73594807Y-117409523D01*
X73594807Y-117409523D02*
X73670998Y-117371428D01*
X73670998Y-117371428D02*
X73861474Y-117371428D01*
X73861474Y-117371428D02*
X73937664Y-117409523D01*
X73937664Y-117409523D02*
X73975760Y-117447618D01*
X73975760Y-117447618D02*
X74013855Y-117523809D01*
X74013855Y-117523809D02*
X74013855Y-117714285D01*
X74013855Y-117714285D02*
X73975760Y-117790475D01*
X73975760Y-117790475D02*
X73937664Y-117828571D01*
X99385714Y-71163855D02*
X99119047Y-70782902D01*
X98928571Y-71163855D02*
X98928571Y-70363855D01*
X98928571Y-70363855D02*
X99233333Y-70363855D01*
X99233333Y-70363855D02*
X99309523Y-70401950D01*
X99309523Y-70401950D02*
X99347618Y-70440045D01*
X99347618Y-70440045D02*
X99385714Y-70516236D01*
X99385714Y-70516236D02*
X99385714Y-70630521D01*
X99385714Y-70630521D02*
X99347618Y-70706712D01*
X99347618Y-70706712D02*
X99309523Y-70744807D01*
X99309523Y-70744807D02*
X99233333Y-70782902D01*
X99233333Y-70782902D02*
X98928571Y-70782902D01*
X100147618Y-71163855D02*
X99690475Y-71163855D01*
X99919047Y-71163855D02*
X99919047Y-70363855D01*
X99919047Y-70363855D02*
X99842856Y-70478140D01*
X99842856Y-70478140D02*
X99766666Y-70554331D01*
X99766666Y-70554331D02*
X99690475Y-70592426D01*
X100528571Y-71163855D02*
X100680952Y-71163855D01*
X100680952Y-71163855D02*
X100757142Y-71125760D01*
X100757142Y-71125760D02*
X100795238Y-71087664D01*
X100795238Y-71087664D02*
X100871428Y-70973379D01*
X100871428Y-70973379D02*
X100909523Y-70820998D01*
X100909523Y-70820998D02*
X100909523Y-70516236D01*
X100909523Y-70516236D02*
X100871428Y-70440045D01*
X100871428Y-70440045D02*
X100833333Y-70401950D01*
X100833333Y-70401950D02*
X100757142Y-70363855D01*
X100757142Y-70363855D02*
X100604761Y-70363855D01*
X100604761Y-70363855D02*
X100528571Y-70401950D01*
X100528571Y-70401950D02*
X100490476Y-70440045D01*
X100490476Y-70440045D02*
X100452380Y-70516236D01*
X100452380Y-70516236D02*
X100452380Y-70706712D01*
X100452380Y-70706712D02*
X100490476Y-70782902D01*
X100490476Y-70782902D02*
X100528571Y-70820998D01*
X100528571Y-70820998D02*
X100604761Y-70859093D01*
X100604761Y-70859093D02*
X100757142Y-70859093D01*
X100757142Y-70859093D02*
X100833333Y-70820998D01*
X100833333Y-70820998D02*
X100871428Y-70782902D01*
X100871428Y-70782902D02*
X100909523Y-70706712D01*
X136037664Y-106164285D02*
X136075760Y-106202381D01*
X136075760Y-106202381D02*
X136113855Y-106316666D01*
X136113855Y-106316666D02*
X136113855Y-106392857D01*
X136113855Y-106392857D02*
X136075760Y-106507143D01*
X136075760Y-106507143D02*
X135999569Y-106583333D01*
X135999569Y-106583333D02*
X135923379Y-106621428D01*
X135923379Y-106621428D02*
X135770998Y-106659524D01*
X135770998Y-106659524D02*
X135656712Y-106659524D01*
X135656712Y-106659524D02*
X135504331Y-106621428D01*
X135504331Y-106621428D02*
X135428140Y-106583333D01*
X135428140Y-106583333D02*
X135351950Y-106507143D01*
X135351950Y-106507143D02*
X135313855Y-106392857D01*
X135313855Y-106392857D02*
X135313855Y-106316666D01*
X135313855Y-106316666D02*
X135351950Y-106202381D01*
X135351950Y-106202381D02*
X135390045Y-106164285D01*
X136113855Y-105402381D02*
X136113855Y-105859524D01*
X136113855Y-105630952D02*
X135313855Y-105630952D01*
X135313855Y-105630952D02*
X135428140Y-105707143D01*
X135428140Y-105707143D02*
X135504331Y-105783333D01*
X135504331Y-105783333D02*
X135542426Y-105859524D01*
X136113855Y-105021428D02*
X136113855Y-104869047D01*
X136113855Y-104869047D02*
X136075760Y-104792857D01*
X136075760Y-104792857D02*
X136037664Y-104754761D01*
X136037664Y-104754761D02*
X135923379Y-104678571D01*
X135923379Y-104678571D02*
X135770998Y-104640476D01*
X135770998Y-104640476D02*
X135466236Y-104640476D01*
X135466236Y-104640476D02*
X135390045Y-104678571D01*
X135390045Y-104678571D02*
X135351950Y-104716666D01*
X135351950Y-104716666D02*
X135313855Y-104792857D01*
X135313855Y-104792857D02*
X135313855Y-104945238D01*
X135313855Y-104945238D02*
X135351950Y-105021428D01*
X135351950Y-105021428D02*
X135390045Y-105059523D01*
X135390045Y-105059523D02*
X135466236Y-105097619D01*
X135466236Y-105097619D02*
X135656712Y-105097619D01*
X135656712Y-105097619D02*
X135732902Y-105059523D01*
X135732902Y-105059523D02*
X135770998Y-105021428D01*
X135770998Y-105021428D02*
X135809093Y-104945238D01*
X135809093Y-104945238D02*
X135809093Y-104792857D01*
X135809093Y-104792857D02*
X135770998Y-104716666D01*
X135770998Y-104716666D02*
X135732902Y-104678571D01*
X135732902Y-104678571D02*
X135656712Y-104640476D01*
X84509524Y-83213855D02*
X84509524Y-83861474D01*
X84509524Y-83861474D02*
X84547619Y-83937664D01*
X84547619Y-83937664D02*
X84585714Y-83975760D01*
X84585714Y-83975760D02*
X84661905Y-84013855D01*
X84661905Y-84013855D02*
X84814286Y-84013855D01*
X84814286Y-84013855D02*
X84890476Y-83975760D01*
X84890476Y-83975760D02*
X84928571Y-83937664D01*
X84928571Y-83937664D02*
X84966667Y-83861474D01*
X84966667Y-83861474D02*
X84966667Y-83213855D01*
X85766666Y-84013855D02*
X85309523Y-84013855D01*
X85538095Y-84013855D02*
X85538095Y-83213855D01*
X85538095Y-83213855D02*
X85461904Y-83328140D01*
X85461904Y-83328140D02*
X85385714Y-83404331D01*
X85385714Y-83404331D02*
X85309523Y-83442426D01*
X86261905Y-83213855D02*
X86338095Y-83213855D01*
X86338095Y-83213855D02*
X86414286Y-83251950D01*
X86414286Y-83251950D02*
X86452381Y-83290045D01*
X86452381Y-83290045D02*
X86490476Y-83366236D01*
X86490476Y-83366236D02*
X86528571Y-83518617D01*
X86528571Y-83518617D02*
X86528571Y-83709093D01*
X86528571Y-83709093D02*
X86490476Y-83861474D01*
X86490476Y-83861474D02*
X86452381Y-83937664D01*
X86452381Y-83937664D02*
X86414286Y-83975760D01*
X86414286Y-83975760D02*
X86338095Y-84013855D01*
X86338095Y-84013855D02*
X86261905Y-84013855D01*
X86261905Y-84013855D02*
X86185714Y-83975760D01*
X86185714Y-83975760D02*
X86147619Y-83937664D01*
X86147619Y-83937664D02*
X86109524Y-83861474D01*
X86109524Y-83861474D02*
X86071428Y-83709093D01*
X86071428Y-83709093D02*
X86071428Y-83518617D01*
X86071428Y-83518617D02*
X86109524Y-83366236D01*
X86109524Y-83366236D02*
X86147619Y-83290045D01*
X86147619Y-83290045D02*
X86185714Y-83251950D01*
X86185714Y-83251950D02*
X86261905Y-83213855D01*
X106317664Y-61933332D02*
X106355760Y-61971428D01*
X106355760Y-61971428D02*
X106393855Y-62085713D01*
X106393855Y-62085713D02*
X106393855Y-62161904D01*
X106393855Y-62161904D02*
X106355760Y-62276190D01*
X106355760Y-62276190D02*
X106279569Y-62352380D01*
X106279569Y-62352380D02*
X106203379Y-62390475D01*
X106203379Y-62390475D02*
X106050998Y-62428571D01*
X106050998Y-62428571D02*
X105936712Y-62428571D01*
X105936712Y-62428571D02*
X105784331Y-62390475D01*
X105784331Y-62390475D02*
X105708140Y-62352380D01*
X105708140Y-62352380D02*
X105631950Y-62276190D01*
X105631950Y-62276190D02*
X105593855Y-62161904D01*
X105593855Y-62161904D02*
X105593855Y-62085713D01*
X105593855Y-62085713D02*
X105631950Y-61971428D01*
X105631950Y-61971428D02*
X105670045Y-61933332D01*
X105593855Y-61666666D02*
X105593855Y-61171428D01*
X105593855Y-61171428D02*
X105898617Y-61438094D01*
X105898617Y-61438094D02*
X105898617Y-61323809D01*
X105898617Y-61323809D02*
X105936712Y-61247618D01*
X105936712Y-61247618D02*
X105974807Y-61209523D01*
X105974807Y-61209523D02*
X106050998Y-61171428D01*
X106050998Y-61171428D02*
X106241474Y-61171428D01*
X106241474Y-61171428D02*
X106317664Y-61209523D01*
X106317664Y-61209523D02*
X106355760Y-61247618D01*
X106355760Y-61247618D02*
X106393855Y-61323809D01*
X106393855Y-61323809D02*
X106393855Y-61552380D01*
X106393855Y-61552380D02*
X106355760Y-61628571D01*
X106355760Y-61628571D02*
X106317664Y-61666666D01*
X137985714Y-92687664D02*
X137947618Y-92725760D01*
X137947618Y-92725760D02*
X137833333Y-92763855D01*
X137833333Y-92763855D02*
X137757142Y-92763855D01*
X137757142Y-92763855D02*
X137642856Y-92725760D01*
X137642856Y-92725760D02*
X137566666Y-92649569D01*
X137566666Y-92649569D02*
X137528571Y-92573379D01*
X137528571Y-92573379D02*
X137490475Y-92420998D01*
X137490475Y-92420998D02*
X137490475Y-92306712D01*
X137490475Y-92306712D02*
X137528571Y-92154331D01*
X137528571Y-92154331D02*
X137566666Y-92078140D01*
X137566666Y-92078140D02*
X137642856Y-92001950D01*
X137642856Y-92001950D02*
X137757142Y-91963855D01*
X137757142Y-91963855D02*
X137833333Y-91963855D01*
X137833333Y-91963855D02*
X137947618Y-92001950D01*
X137947618Y-92001950D02*
X137985714Y-92040045D01*
X138747618Y-92763855D02*
X138290475Y-92763855D01*
X138519047Y-92763855D02*
X138519047Y-91963855D01*
X138519047Y-91963855D02*
X138442856Y-92078140D01*
X138442856Y-92078140D02*
X138366666Y-92154331D01*
X138366666Y-92154331D02*
X138290475Y-92192426D01*
X139204761Y-92306712D02*
X139128571Y-92268617D01*
X139128571Y-92268617D02*
X139090476Y-92230521D01*
X139090476Y-92230521D02*
X139052380Y-92154331D01*
X139052380Y-92154331D02*
X139052380Y-92116236D01*
X139052380Y-92116236D02*
X139090476Y-92040045D01*
X139090476Y-92040045D02*
X139128571Y-92001950D01*
X139128571Y-92001950D02*
X139204761Y-91963855D01*
X139204761Y-91963855D02*
X139357142Y-91963855D01*
X139357142Y-91963855D02*
X139433333Y-92001950D01*
X139433333Y-92001950D02*
X139471428Y-92040045D01*
X139471428Y-92040045D02*
X139509523Y-92116236D01*
X139509523Y-92116236D02*
X139509523Y-92154331D01*
X139509523Y-92154331D02*
X139471428Y-92230521D01*
X139471428Y-92230521D02*
X139433333Y-92268617D01*
X139433333Y-92268617D02*
X139357142Y-92306712D01*
X139357142Y-92306712D02*
X139204761Y-92306712D01*
X139204761Y-92306712D02*
X139128571Y-92344807D01*
X139128571Y-92344807D02*
X139090476Y-92382902D01*
X139090476Y-92382902D02*
X139052380Y-92459093D01*
X139052380Y-92459093D02*
X139052380Y-92611474D01*
X139052380Y-92611474D02*
X139090476Y-92687664D01*
X139090476Y-92687664D02*
X139128571Y-92725760D01*
X139128571Y-92725760D02*
X139204761Y-92763855D01*
X139204761Y-92763855D02*
X139357142Y-92763855D01*
X139357142Y-92763855D02*
X139433333Y-92725760D01*
X139433333Y-92725760D02*
X139471428Y-92687664D01*
X139471428Y-92687664D02*
X139509523Y-92611474D01*
X139509523Y-92611474D02*
X139509523Y-92459093D01*
X139509523Y-92459093D02*
X139471428Y-92382902D01*
X139471428Y-92382902D02*
X139433333Y-92344807D01*
X139433333Y-92344807D02*
X139357142Y-92306712D01*
X81235714Y-83913855D02*
X80969047Y-83532902D01*
X80778571Y-83913855D02*
X80778571Y-83113855D01*
X80778571Y-83113855D02*
X81083333Y-83113855D01*
X81083333Y-83113855D02*
X81159523Y-83151950D01*
X81159523Y-83151950D02*
X81197618Y-83190045D01*
X81197618Y-83190045D02*
X81235714Y-83266236D01*
X81235714Y-83266236D02*
X81235714Y-83380521D01*
X81235714Y-83380521D02*
X81197618Y-83456712D01*
X81197618Y-83456712D02*
X81159523Y-83494807D01*
X81159523Y-83494807D02*
X81083333Y-83532902D01*
X81083333Y-83532902D02*
X80778571Y-83532902D01*
X81997618Y-83913855D02*
X81540475Y-83913855D01*
X81769047Y-83913855D02*
X81769047Y-83113855D01*
X81769047Y-83113855D02*
X81692856Y-83228140D01*
X81692856Y-83228140D02*
X81616666Y-83304331D01*
X81616666Y-83304331D02*
X81540475Y-83342426D01*
X82492857Y-83113855D02*
X82569047Y-83113855D01*
X82569047Y-83113855D02*
X82645238Y-83151950D01*
X82645238Y-83151950D02*
X82683333Y-83190045D01*
X82683333Y-83190045D02*
X82721428Y-83266236D01*
X82721428Y-83266236D02*
X82759523Y-83418617D01*
X82759523Y-83418617D02*
X82759523Y-83609093D01*
X82759523Y-83609093D02*
X82721428Y-83761474D01*
X82721428Y-83761474D02*
X82683333Y-83837664D01*
X82683333Y-83837664D02*
X82645238Y-83875760D01*
X82645238Y-83875760D02*
X82569047Y-83913855D01*
X82569047Y-83913855D02*
X82492857Y-83913855D01*
X82492857Y-83913855D02*
X82416666Y-83875760D01*
X82416666Y-83875760D02*
X82378571Y-83837664D01*
X82378571Y-83837664D02*
X82340476Y-83761474D01*
X82340476Y-83761474D02*
X82302380Y-83609093D01*
X82302380Y-83609093D02*
X82302380Y-83418617D01*
X82302380Y-83418617D02*
X82340476Y-83266236D01*
X82340476Y-83266236D02*
X82378571Y-83190045D01*
X82378571Y-83190045D02*
X82416666Y-83151950D01*
X82416666Y-83151950D02*
X82492857Y-83113855D01*
X133959524Y-95913855D02*
X133959524Y-96561474D01*
X133959524Y-96561474D02*
X133997619Y-96637664D01*
X133997619Y-96637664D02*
X134035714Y-96675760D01*
X134035714Y-96675760D02*
X134111905Y-96713855D01*
X134111905Y-96713855D02*
X134264286Y-96713855D01*
X134264286Y-96713855D02*
X134340476Y-96675760D01*
X134340476Y-96675760D02*
X134378571Y-96637664D01*
X134378571Y-96637664D02*
X134416667Y-96561474D01*
X134416667Y-96561474D02*
X134416667Y-95913855D01*
X135216666Y-96713855D02*
X134759523Y-96713855D01*
X134988095Y-96713855D02*
X134988095Y-95913855D01*
X134988095Y-95913855D02*
X134911904Y-96028140D01*
X134911904Y-96028140D02*
X134835714Y-96104331D01*
X134835714Y-96104331D02*
X134759523Y-96142426D01*
X135521428Y-95990045D02*
X135559524Y-95951950D01*
X135559524Y-95951950D02*
X135635714Y-95913855D01*
X135635714Y-95913855D02*
X135826190Y-95913855D01*
X135826190Y-95913855D02*
X135902381Y-95951950D01*
X135902381Y-95951950D02*
X135940476Y-95990045D01*
X135940476Y-95990045D02*
X135978571Y-96066236D01*
X135978571Y-96066236D02*
X135978571Y-96142426D01*
X135978571Y-96142426D02*
X135940476Y-96256712D01*
X135940476Y-96256712D02*
X135483333Y-96713855D01*
X135483333Y-96713855D02*
X135978571Y-96713855D01*
X54790476Y-68563855D02*
X54790476Y-67763855D01*
X54790476Y-68144807D02*
X55247619Y-68144807D01*
X55247619Y-68563855D02*
X55247619Y-67763855D01*
X56047618Y-68563855D02*
X55590475Y-68563855D01*
X55819047Y-68563855D02*
X55819047Y-67763855D01*
X55819047Y-67763855D02*
X55742856Y-67878140D01*
X55742856Y-67878140D02*
X55666666Y-67954331D01*
X55666666Y-67954331D02*
X55590475Y-67992426D01*
X111203855Y-110514285D02*
X110822902Y-110780952D01*
X111203855Y-110971428D02*
X110403855Y-110971428D01*
X110403855Y-110971428D02*
X110403855Y-110666666D01*
X110403855Y-110666666D02*
X110441950Y-110590476D01*
X110441950Y-110590476D02*
X110480045Y-110552381D01*
X110480045Y-110552381D02*
X110556236Y-110514285D01*
X110556236Y-110514285D02*
X110670521Y-110514285D01*
X110670521Y-110514285D02*
X110746712Y-110552381D01*
X110746712Y-110552381D02*
X110784807Y-110590476D01*
X110784807Y-110590476D02*
X110822902Y-110666666D01*
X110822902Y-110666666D02*
X110822902Y-110971428D01*
X111203855Y-109752381D02*
X111203855Y-110209524D01*
X111203855Y-109980952D02*
X110403855Y-109980952D01*
X110403855Y-109980952D02*
X110518140Y-110057143D01*
X110518140Y-110057143D02*
X110594331Y-110133333D01*
X110594331Y-110133333D02*
X110632426Y-110209524D01*
X111203855Y-108990476D02*
X111203855Y-109447619D01*
X111203855Y-109219047D02*
X110403855Y-109219047D01*
X110403855Y-109219047D02*
X110518140Y-109295238D01*
X110518140Y-109295238D02*
X110594331Y-109371428D01*
X110594331Y-109371428D02*
X110632426Y-109447619D01*
X78820476Y-109398855D02*
X78820476Y-110046474D01*
X78820476Y-110046474D02*
X78858571Y-110122664D01*
X78858571Y-110122664D02*
X78896666Y-110160760D01*
X78896666Y-110160760D02*
X78972857Y-110198855D01*
X78972857Y-110198855D02*
X79125238Y-110198855D01*
X79125238Y-110198855D02*
X79201428Y-110160760D01*
X79201428Y-110160760D02*
X79239523Y-110122664D01*
X79239523Y-110122664D02*
X79277619Y-110046474D01*
X79277619Y-110046474D02*
X79277619Y-109398855D01*
X79620475Y-109475045D02*
X79658571Y-109436950D01*
X79658571Y-109436950D02*
X79734761Y-109398855D01*
X79734761Y-109398855D02*
X79925237Y-109398855D01*
X79925237Y-109398855D02*
X80001428Y-109436950D01*
X80001428Y-109436950D02*
X80039523Y-109475045D01*
X80039523Y-109475045D02*
X80077618Y-109551236D01*
X80077618Y-109551236D02*
X80077618Y-109627426D01*
X80077618Y-109627426D02*
X80039523Y-109741712D01*
X80039523Y-109741712D02*
X79582380Y-110198855D01*
X79582380Y-110198855D02*
X80077618Y-110198855D01*
X58084524Y-141851355D02*
X58084524Y-141051355D01*
X58084524Y-141051355D02*
X58275000Y-141051355D01*
X58275000Y-141051355D02*
X58389286Y-141089450D01*
X58389286Y-141089450D02*
X58465476Y-141165640D01*
X58465476Y-141165640D02*
X58503571Y-141241831D01*
X58503571Y-141241831D02*
X58541667Y-141394212D01*
X58541667Y-141394212D02*
X58541667Y-141508498D01*
X58541667Y-141508498D02*
X58503571Y-141660879D01*
X58503571Y-141660879D02*
X58465476Y-141737069D01*
X58465476Y-141737069D02*
X58389286Y-141813260D01*
X58389286Y-141813260D02*
X58275000Y-141851355D01*
X58275000Y-141851355D02*
X58084524Y-141851355D01*
X58846428Y-141127545D02*
X58884524Y-141089450D01*
X58884524Y-141089450D02*
X58960714Y-141051355D01*
X58960714Y-141051355D02*
X59151190Y-141051355D01*
X59151190Y-141051355D02*
X59227381Y-141089450D01*
X59227381Y-141089450D02*
X59265476Y-141127545D01*
X59265476Y-141127545D02*
X59303571Y-141203736D01*
X59303571Y-141203736D02*
X59303571Y-141279926D01*
X59303571Y-141279926D02*
X59265476Y-141394212D01*
X59265476Y-141394212D02*
X58808333Y-141851355D01*
X58808333Y-141851355D02*
X59303571Y-141851355D01*
X104113855Y-54133332D02*
X103732902Y-54399999D01*
X104113855Y-54590475D02*
X103313855Y-54590475D01*
X103313855Y-54590475D02*
X103313855Y-54285713D01*
X103313855Y-54285713D02*
X103351950Y-54209523D01*
X103351950Y-54209523D02*
X103390045Y-54171428D01*
X103390045Y-54171428D02*
X103466236Y-54133332D01*
X103466236Y-54133332D02*
X103580521Y-54133332D01*
X103580521Y-54133332D02*
X103656712Y-54171428D01*
X103656712Y-54171428D02*
X103694807Y-54209523D01*
X103694807Y-54209523D02*
X103732902Y-54285713D01*
X103732902Y-54285713D02*
X103732902Y-54590475D01*
X104113855Y-53371428D02*
X104113855Y-53828571D01*
X104113855Y-53599999D02*
X103313855Y-53599999D01*
X103313855Y-53599999D02*
X103428140Y-53676190D01*
X103428140Y-53676190D02*
X103504331Y-53752380D01*
X103504331Y-53752380D02*
X103542426Y-53828571D01*
X106317664Y-65183332D02*
X106355760Y-65221428D01*
X106355760Y-65221428D02*
X106393855Y-65335713D01*
X106393855Y-65335713D02*
X106393855Y-65411904D01*
X106393855Y-65411904D02*
X106355760Y-65526190D01*
X106355760Y-65526190D02*
X106279569Y-65602380D01*
X106279569Y-65602380D02*
X106203379Y-65640475D01*
X106203379Y-65640475D02*
X106050998Y-65678571D01*
X106050998Y-65678571D02*
X105936712Y-65678571D01*
X105936712Y-65678571D02*
X105784331Y-65640475D01*
X105784331Y-65640475D02*
X105708140Y-65602380D01*
X105708140Y-65602380D02*
X105631950Y-65526190D01*
X105631950Y-65526190D02*
X105593855Y-65411904D01*
X105593855Y-65411904D02*
X105593855Y-65335713D01*
X105593855Y-65335713D02*
X105631950Y-65221428D01*
X105631950Y-65221428D02*
X105670045Y-65183332D01*
X105670045Y-64878571D02*
X105631950Y-64840475D01*
X105631950Y-64840475D02*
X105593855Y-64764285D01*
X105593855Y-64764285D02*
X105593855Y-64573809D01*
X105593855Y-64573809D02*
X105631950Y-64497618D01*
X105631950Y-64497618D02*
X105670045Y-64459523D01*
X105670045Y-64459523D02*
X105746236Y-64421428D01*
X105746236Y-64421428D02*
X105822426Y-64421428D01*
X105822426Y-64421428D02*
X105936712Y-64459523D01*
X105936712Y-64459523D02*
X106393855Y-64916666D01*
X106393855Y-64916666D02*
X106393855Y-64421428D01*
X67293855Y-86553332D02*
X66912902Y-86819999D01*
X67293855Y-87010475D02*
X66493855Y-87010475D01*
X66493855Y-87010475D02*
X66493855Y-86705713D01*
X66493855Y-86705713D02*
X66531950Y-86629523D01*
X66531950Y-86629523D02*
X66570045Y-86591428D01*
X66570045Y-86591428D02*
X66646236Y-86553332D01*
X66646236Y-86553332D02*
X66760521Y-86553332D01*
X66760521Y-86553332D02*
X66836712Y-86591428D01*
X66836712Y-86591428D02*
X66874807Y-86629523D01*
X66874807Y-86629523D02*
X66912902Y-86705713D01*
X66912902Y-86705713D02*
X66912902Y-87010475D01*
X66836712Y-86096190D02*
X66798617Y-86172380D01*
X66798617Y-86172380D02*
X66760521Y-86210475D01*
X66760521Y-86210475D02*
X66684331Y-86248571D01*
X66684331Y-86248571D02*
X66646236Y-86248571D01*
X66646236Y-86248571D02*
X66570045Y-86210475D01*
X66570045Y-86210475D02*
X66531950Y-86172380D01*
X66531950Y-86172380D02*
X66493855Y-86096190D01*
X66493855Y-86096190D02*
X66493855Y-85943809D01*
X66493855Y-85943809D02*
X66531950Y-85867618D01*
X66531950Y-85867618D02*
X66570045Y-85829523D01*
X66570045Y-85829523D02*
X66646236Y-85791428D01*
X66646236Y-85791428D02*
X66684331Y-85791428D01*
X66684331Y-85791428D02*
X66760521Y-85829523D01*
X66760521Y-85829523D02*
X66798617Y-85867618D01*
X66798617Y-85867618D02*
X66836712Y-85943809D01*
X66836712Y-85943809D02*
X66836712Y-86096190D01*
X66836712Y-86096190D02*
X66874807Y-86172380D01*
X66874807Y-86172380D02*
X66912902Y-86210475D01*
X66912902Y-86210475D02*
X66989093Y-86248571D01*
X66989093Y-86248571D02*
X67141474Y-86248571D01*
X67141474Y-86248571D02*
X67217664Y-86210475D01*
X67217664Y-86210475D02*
X67255760Y-86172380D01*
X67255760Y-86172380D02*
X67293855Y-86096190D01*
X67293855Y-86096190D02*
X67293855Y-85943809D01*
X67293855Y-85943809D02*
X67255760Y-85867618D01*
X67255760Y-85867618D02*
X67217664Y-85829523D01*
X67217664Y-85829523D02*
X67141474Y-85791428D01*
X67141474Y-85791428D02*
X66989093Y-85791428D01*
X66989093Y-85791428D02*
X66912902Y-85829523D01*
X66912902Y-85829523D02*
X66874807Y-85867618D01*
X66874807Y-85867618D02*
X66836712Y-85943809D01*
X84835714Y-71163855D02*
X84569047Y-70782902D01*
X84378571Y-71163855D02*
X84378571Y-70363855D01*
X84378571Y-70363855D02*
X84683333Y-70363855D01*
X84683333Y-70363855D02*
X84759523Y-70401950D01*
X84759523Y-70401950D02*
X84797618Y-70440045D01*
X84797618Y-70440045D02*
X84835714Y-70516236D01*
X84835714Y-70516236D02*
X84835714Y-70630521D01*
X84835714Y-70630521D02*
X84797618Y-70706712D01*
X84797618Y-70706712D02*
X84759523Y-70744807D01*
X84759523Y-70744807D02*
X84683333Y-70782902D01*
X84683333Y-70782902D02*
X84378571Y-70782902D01*
X85597618Y-71163855D02*
X85140475Y-71163855D01*
X85369047Y-71163855D02*
X85369047Y-70363855D01*
X85369047Y-70363855D02*
X85292856Y-70478140D01*
X85292856Y-70478140D02*
X85216666Y-70554331D01*
X85216666Y-70554331D02*
X85140475Y-70592426D01*
X86283333Y-70630521D02*
X86283333Y-71163855D01*
X86092857Y-70325760D02*
X85902380Y-70897188D01*
X85902380Y-70897188D02*
X86397619Y-70897188D01*
X101263855Y-76064285D02*
X100882902Y-76330952D01*
X101263855Y-76521428D02*
X100463855Y-76521428D01*
X100463855Y-76521428D02*
X100463855Y-76216666D01*
X100463855Y-76216666D02*
X100501950Y-76140476D01*
X100501950Y-76140476D02*
X100540045Y-76102381D01*
X100540045Y-76102381D02*
X100616236Y-76064285D01*
X100616236Y-76064285D02*
X100730521Y-76064285D01*
X100730521Y-76064285D02*
X100806712Y-76102381D01*
X100806712Y-76102381D02*
X100844807Y-76140476D01*
X100844807Y-76140476D02*
X100882902Y-76216666D01*
X100882902Y-76216666D02*
X100882902Y-76521428D01*
X100540045Y-75759524D02*
X100501950Y-75721428D01*
X100501950Y-75721428D02*
X100463855Y-75645238D01*
X100463855Y-75645238D02*
X100463855Y-75454762D01*
X100463855Y-75454762D02*
X100501950Y-75378571D01*
X100501950Y-75378571D02*
X100540045Y-75340476D01*
X100540045Y-75340476D02*
X100616236Y-75302381D01*
X100616236Y-75302381D02*
X100692426Y-75302381D01*
X100692426Y-75302381D02*
X100806712Y-75340476D01*
X100806712Y-75340476D02*
X101263855Y-75797619D01*
X101263855Y-75797619D02*
X101263855Y-75302381D01*
X100540045Y-74997619D02*
X100501950Y-74959523D01*
X100501950Y-74959523D02*
X100463855Y-74883333D01*
X100463855Y-74883333D02*
X100463855Y-74692857D01*
X100463855Y-74692857D02*
X100501950Y-74616666D01*
X100501950Y-74616666D02*
X100540045Y-74578571D01*
X100540045Y-74578571D02*
X100616236Y-74540476D01*
X100616236Y-74540476D02*
X100692426Y-74540476D01*
X100692426Y-74540476D02*
X100806712Y-74578571D01*
X100806712Y-74578571D02*
X101263855Y-75035714D01*
X101263855Y-75035714D02*
X101263855Y-74540476D01*
X59785714Y-112087664D02*
X59747618Y-112125760D01*
X59747618Y-112125760D02*
X59633333Y-112163855D01*
X59633333Y-112163855D02*
X59557142Y-112163855D01*
X59557142Y-112163855D02*
X59442856Y-112125760D01*
X59442856Y-112125760D02*
X59366666Y-112049569D01*
X59366666Y-112049569D02*
X59328571Y-111973379D01*
X59328571Y-111973379D02*
X59290475Y-111820998D01*
X59290475Y-111820998D02*
X59290475Y-111706712D01*
X59290475Y-111706712D02*
X59328571Y-111554331D01*
X59328571Y-111554331D02*
X59366666Y-111478140D01*
X59366666Y-111478140D02*
X59442856Y-111401950D01*
X59442856Y-111401950D02*
X59557142Y-111363855D01*
X59557142Y-111363855D02*
X59633333Y-111363855D01*
X59633333Y-111363855D02*
X59747618Y-111401950D01*
X59747618Y-111401950D02*
X59785714Y-111440045D01*
X60547618Y-112163855D02*
X60090475Y-112163855D01*
X60319047Y-112163855D02*
X60319047Y-111363855D01*
X60319047Y-111363855D02*
X60242856Y-111478140D01*
X60242856Y-111478140D02*
X60166666Y-111554331D01*
X60166666Y-111554331D02*
X60090475Y-111592426D01*
X60814285Y-111363855D02*
X61347619Y-111363855D01*
X61347619Y-111363855D02*
X61004761Y-112163855D01*
X84785714Y-69663855D02*
X84519047Y-69282902D01*
X84328571Y-69663855D02*
X84328571Y-68863855D01*
X84328571Y-68863855D02*
X84633333Y-68863855D01*
X84633333Y-68863855D02*
X84709523Y-68901950D01*
X84709523Y-68901950D02*
X84747618Y-68940045D01*
X84747618Y-68940045D02*
X84785714Y-69016236D01*
X84785714Y-69016236D02*
X84785714Y-69130521D01*
X84785714Y-69130521D02*
X84747618Y-69206712D01*
X84747618Y-69206712D02*
X84709523Y-69244807D01*
X84709523Y-69244807D02*
X84633333Y-69282902D01*
X84633333Y-69282902D02*
X84328571Y-69282902D01*
X85547618Y-69663855D02*
X85090475Y-69663855D01*
X85319047Y-69663855D02*
X85319047Y-68863855D01*
X85319047Y-68863855D02*
X85242856Y-68978140D01*
X85242856Y-68978140D02*
X85166666Y-69054331D01*
X85166666Y-69054331D02*
X85090475Y-69092426D01*
X86271428Y-68863855D02*
X85890476Y-68863855D01*
X85890476Y-68863855D02*
X85852380Y-69244807D01*
X85852380Y-69244807D02*
X85890476Y-69206712D01*
X85890476Y-69206712D02*
X85966666Y-69168617D01*
X85966666Y-69168617D02*
X86157142Y-69168617D01*
X86157142Y-69168617D02*
X86233333Y-69206712D01*
X86233333Y-69206712D02*
X86271428Y-69244807D01*
X86271428Y-69244807D02*
X86309523Y-69320998D01*
X86309523Y-69320998D02*
X86309523Y-69511474D01*
X86309523Y-69511474D02*
X86271428Y-69587664D01*
X86271428Y-69587664D02*
X86233333Y-69625760D01*
X86233333Y-69625760D02*
X86157142Y-69663855D01*
X86157142Y-69663855D02*
X85966666Y-69663855D01*
X85966666Y-69663855D02*
X85890476Y-69625760D01*
X85890476Y-69625760D02*
X85852380Y-69587664D01*
X104890476Y-83463855D02*
X104890476Y-84111474D01*
X104890476Y-84111474D02*
X104928571Y-84187664D01*
X104928571Y-84187664D02*
X104966666Y-84225760D01*
X104966666Y-84225760D02*
X105042857Y-84263855D01*
X105042857Y-84263855D02*
X105195238Y-84263855D01*
X105195238Y-84263855D02*
X105271428Y-84225760D01*
X105271428Y-84225760D02*
X105309523Y-84187664D01*
X105309523Y-84187664D02*
X105347619Y-84111474D01*
X105347619Y-84111474D02*
X105347619Y-83463855D01*
X105652380Y-83463855D02*
X106185714Y-83463855D01*
X106185714Y-83463855D02*
X105842856Y-84263855D01*
X102763855Y-76064285D02*
X102382902Y-76330952D01*
X102763855Y-76521428D02*
X101963855Y-76521428D01*
X101963855Y-76521428D02*
X101963855Y-76216666D01*
X101963855Y-76216666D02*
X102001950Y-76140476D01*
X102001950Y-76140476D02*
X102040045Y-76102381D01*
X102040045Y-76102381D02*
X102116236Y-76064285D01*
X102116236Y-76064285D02*
X102230521Y-76064285D01*
X102230521Y-76064285D02*
X102306712Y-76102381D01*
X102306712Y-76102381D02*
X102344807Y-76140476D01*
X102344807Y-76140476D02*
X102382902Y-76216666D01*
X102382902Y-76216666D02*
X102382902Y-76521428D01*
X102763855Y-75302381D02*
X102763855Y-75759524D01*
X102763855Y-75530952D02*
X101963855Y-75530952D01*
X101963855Y-75530952D02*
X102078140Y-75607143D01*
X102078140Y-75607143D02*
X102154331Y-75683333D01*
X102154331Y-75683333D02*
X102192426Y-75759524D01*
X101963855Y-75035714D02*
X101963855Y-74502380D01*
X101963855Y-74502380D02*
X102763855Y-74845238D01*
X90607664Y-61314285D02*
X90645760Y-61352381D01*
X90645760Y-61352381D02*
X90683855Y-61466666D01*
X90683855Y-61466666D02*
X90683855Y-61542857D01*
X90683855Y-61542857D02*
X90645760Y-61657143D01*
X90645760Y-61657143D02*
X90569569Y-61733333D01*
X90569569Y-61733333D02*
X90493379Y-61771428D01*
X90493379Y-61771428D02*
X90340998Y-61809524D01*
X90340998Y-61809524D02*
X90226712Y-61809524D01*
X90226712Y-61809524D02*
X90074331Y-61771428D01*
X90074331Y-61771428D02*
X89998140Y-61733333D01*
X89998140Y-61733333D02*
X89921950Y-61657143D01*
X89921950Y-61657143D02*
X89883855Y-61542857D01*
X89883855Y-61542857D02*
X89883855Y-61466666D01*
X89883855Y-61466666D02*
X89921950Y-61352381D01*
X89921950Y-61352381D02*
X89960045Y-61314285D01*
X89960045Y-61009524D02*
X89921950Y-60971428D01*
X89921950Y-60971428D02*
X89883855Y-60895238D01*
X89883855Y-60895238D02*
X89883855Y-60704762D01*
X89883855Y-60704762D02*
X89921950Y-60628571D01*
X89921950Y-60628571D02*
X89960045Y-60590476D01*
X89960045Y-60590476D02*
X90036236Y-60552381D01*
X90036236Y-60552381D02*
X90112426Y-60552381D01*
X90112426Y-60552381D02*
X90226712Y-60590476D01*
X90226712Y-60590476D02*
X90683855Y-61047619D01*
X90683855Y-61047619D02*
X90683855Y-60552381D01*
X89883855Y-60057142D02*
X89883855Y-59980952D01*
X89883855Y-59980952D02*
X89921950Y-59904761D01*
X89921950Y-59904761D02*
X89960045Y-59866666D01*
X89960045Y-59866666D02*
X90036236Y-59828571D01*
X90036236Y-59828571D02*
X90188617Y-59790476D01*
X90188617Y-59790476D02*
X90379093Y-59790476D01*
X90379093Y-59790476D02*
X90531474Y-59828571D01*
X90531474Y-59828571D02*
X90607664Y-59866666D01*
X90607664Y-59866666D02*
X90645760Y-59904761D01*
X90645760Y-59904761D02*
X90683855Y-59980952D01*
X90683855Y-59980952D02*
X90683855Y-60057142D01*
X90683855Y-60057142D02*
X90645760Y-60133333D01*
X90645760Y-60133333D02*
X90607664Y-60171428D01*
X90607664Y-60171428D02*
X90531474Y-60209523D01*
X90531474Y-60209523D02*
X90379093Y-60247619D01*
X90379093Y-60247619D02*
X90188617Y-60247619D01*
X90188617Y-60247619D02*
X90036236Y-60209523D01*
X90036236Y-60209523D02*
X89960045Y-60171428D01*
X89960045Y-60171428D02*
X89921950Y-60133333D01*
X89921950Y-60133333D02*
X89883855Y-60057142D01*
X72043855Y-86633332D02*
X71662902Y-86899999D01*
X72043855Y-87090475D02*
X71243855Y-87090475D01*
X71243855Y-87090475D02*
X71243855Y-86785713D01*
X71243855Y-86785713D02*
X71281950Y-86709523D01*
X71281950Y-86709523D02*
X71320045Y-86671428D01*
X71320045Y-86671428D02*
X71396236Y-86633332D01*
X71396236Y-86633332D02*
X71510521Y-86633332D01*
X71510521Y-86633332D02*
X71586712Y-86671428D01*
X71586712Y-86671428D02*
X71624807Y-86709523D01*
X71624807Y-86709523D02*
X71662902Y-86785713D01*
X71662902Y-86785713D02*
X71662902Y-87090475D01*
X72043855Y-86252380D02*
X72043855Y-86099999D01*
X72043855Y-86099999D02*
X72005760Y-86023809D01*
X72005760Y-86023809D02*
X71967664Y-85985713D01*
X71967664Y-85985713D02*
X71853379Y-85909523D01*
X71853379Y-85909523D02*
X71700998Y-85871428D01*
X71700998Y-85871428D02*
X71396236Y-85871428D01*
X71396236Y-85871428D02*
X71320045Y-85909523D01*
X71320045Y-85909523D02*
X71281950Y-85947618D01*
X71281950Y-85947618D02*
X71243855Y-86023809D01*
X71243855Y-86023809D02*
X71243855Y-86176190D01*
X71243855Y-86176190D02*
X71281950Y-86252380D01*
X71281950Y-86252380D02*
X71320045Y-86290475D01*
X71320045Y-86290475D02*
X71396236Y-86328571D01*
X71396236Y-86328571D02*
X71586712Y-86328571D01*
X71586712Y-86328571D02*
X71662902Y-86290475D01*
X71662902Y-86290475D02*
X71700998Y-86252380D01*
X71700998Y-86252380D02*
X71739093Y-86176190D01*
X71739093Y-86176190D02*
X71739093Y-86023809D01*
X71739093Y-86023809D02*
X71700998Y-85947618D01*
X71700998Y-85947618D02*
X71662902Y-85909523D01*
X71662902Y-85909523D02*
X71586712Y-85871428D01*
X139583333Y-83813855D02*
X139583333Y-84385283D01*
X139583333Y-84385283D02*
X139545238Y-84499569D01*
X139545238Y-84499569D02*
X139469047Y-84575760D01*
X139469047Y-84575760D02*
X139354762Y-84613855D01*
X139354762Y-84613855D02*
X139278571Y-84613855D01*
X140307143Y-84080521D02*
X140307143Y-84613855D01*
X140116667Y-83775760D02*
X139926190Y-84347188D01*
X139926190Y-84347188D02*
X140421429Y-84347188D01*
D11*
%TO.C,J5*%
X88500000Y-134400000D02*
X88500000Y-114800000D01*
X88500000Y-143500000D02*
X88500000Y-137400000D01*
D12*
X109225000Y-112400000D02*
X109225000Y-112400000D01*
X109225000Y-112500000D02*
X109225000Y-112500000D01*
D11*
X112750000Y-114500000D02*
X117000000Y-114500000D01*
X117000000Y-114500000D02*
X117000000Y-133200000D01*
X117000000Y-136200000D02*
X117000000Y-143500000D01*
X117000000Y-143500000D02*
X88500000Y-143500000D01*
D12*
X109225000Y-112400000D02*
G75*
G02*
X109225000Y-112500000I0J-50000D01*
G01*
X109225000Y-112500000D02*
G75*
G02*
X109225000Y-112400000I0J50000D01*
G01*
D13*
%TO.C,R12*%
X104365000Y-109772936D02*
X104365000Y-110227064D01*
X105835000Y-109772936D02*
X105835000Y-110227064D01*
%TO.C,TP16*%
X125950000Y-130000000D02*
G75*
G02*
X124050000Y-130000000I-950000J0D01*
G01*
X124050000Y-130000000D02*
G75*
G02*
X125950000Y-130000000I950000J0D01*
G01*
%TO.C,R21*%
X97377500Y-73037258D02*
X97377500Y-72562742D01*
X98422500Y-73037258D02*
X98422500Y-72562742D01*
%TO.C,D1*%
X75265000Y-85470000D02*
X75265000Y-87755000D01*
X75265000Y-87755000D02*
X76735000Y-87755000D01*
X76735000Y-87755000D02*
X76735000Y-85470000D01*
%TO.C,U9*%
X101150000Y-81375000D02*
X99450000Y-81375000D01*
X102000000Y-82625000D02*
X99450000Y-82625000D01*
%TO.C,R7*%
X74815000Y-115522064D02*
X74815000Y-115067936D01*
X76285000Y-115522064D02*
X76285000Y-115067936D01*
%TO.C,C21*%
X65715000Y-110808748D02*
X65715000Y-111331252D01*
X67185000Y-110808748D02*
X67185000Y-111331252D01*
%TO.C,U1*%
X93590000Y-62800000D02*
X93590000Y-60850000D01*
X93590000Y-62800000D02*
X93590000Y-64750000D01*
X103710000Y-62800000D02*
X103710000Y-60850000D01*
X103710000Y-62800000D02*
X103710000Y-64750000D01*
X103985000Y-60340000D02*
X103655000Y-60100000D01*
X103985000Y-59860000D01*
X103985000Y-60340000D01*
G36*
X103985000Y-60340000D02*
G01*
X103655000Y-60100000D01*
X103985000Y-59860000D01*
X103985000Y-60340000D01*
G37*
%TO.C,Q1*%
X100840000Y-69300000D02*
X100840000Y-68650000D01*
X100840000Y-69300000D02*
X100840000Y-69950000D01*
X103960000Y-69300000D02*
X103960000Y-68650000D01*
X103960000Y-69300000D02*
X103960000Y-69950000D01*
X104240000Y-68377500D02*
X103910000Y-68137500D01*
X104240000Y-67897500D01*
X104240000Y-68377500D01*
G36*
X104240000Y-68377500D02*
G01*
X103910000Y-68137500D01*
X104240000Y-67897500D01*
X104240000Y-68377500D01*
G37*
%TO.C,TP15*%
X125950000Y-113500000D02*
G75*
G02*
X124050000Y-113500000I-950000J0D01*
G01*
X124050000Y-113500000D02*
G75*
G02*
X125950000Y-113500000I950000J0D01*
G01*
%TO.C,R18*%
X95877500Y-73037258D02*
X95877500Y-72562742D01*
X96922500Y-73037258D02*
X96922500Y-72562742D01*
%TO.C,TP3*%
X116990000Y-75050000D02*
G75*
G02*
X115090000Y-75050000I-950000J0D01*
G01*
X115090000Y-75050000D02*
G75*
G02*
X116990000Y-75050000I950000J0D01*
G01*
%TO.C,U8*%
X72600000Y-77960000D02*
X123400000Y-77960000D01*
X72600000Y-80500000D02*
X72600000Y-77960000D01*
X122130000Y-80500000D02*
X72600000Y-80500000D01*
X123400000Y-77960000D02*
X123400000Y-79230000D01*
%TO.C,TP8*%
X125950000Y-124500000D02*
G75*
G02*
X124050000Y-124500000I-950000J0D01*
G01*
X124050000Y-124500000D02*
G75*
G02*
X125950000Y-124500000I950000J0D01*
G01*
%TO.C,Q2*%
X95840000Y-69300000D02*
X95840000Y-68650000D01*
X95840000Y-69300000D02*
X95840000Y-69950000D01*
X98960000Y-69300000D02*
X98960000Y-68650000D01*
X98960000Y-69300000D02*
X98960000Y-69950000D01*
X99240000Y-68377500D02*
X98910000Y-68137500D01*
X99240000Y-67897500D01*
X99240000Y-68377500D01*
G36*
X99240000Y-68377500D02*
G01*
X98910000Y-68137500D01*
X99240000Y-67897500D01*
X99240000Y-68377500D01*
G37*
%TO.C,J3*%
X92730000Y-54300000D02*
X92730000Y-56000000D01*
X102070000Y-54300000D02*
X102070000Y-56000000D01*
%TO.C,R16*%
X90477500Y-56537258D02*
X90477500Y-56062742D01*
X91522500Y-56537258D02*
X91522500Y-56062742D01*
%TO.C,R20*%
X98877500Y-73037258D02*
X98877500Y-72562742D01*
X99922500Y-73037258D02*
X99922500Y-72562742D01*
%TO.C,TP2*%
X64950000Y-114250000D02*
G75*
G02*
X63050000Y-114250000I-950000J0D01*
G01*
X63050000Y-114250000D02*
G75*
G02*
X64950000Y-114250000I950000J0D01*
G01*
%TO.C,R6*%
X76715000Y-115522064D02*
X76715000Y-115067936D01*
X78185000Y-115522064D02*
X78185000Y-115067936D01*
%TO.C,U5*%
X108000000Y-51500000D02*
X108000000Y-56800000D01*
X108000000Y-62800000D02*
X108000000Y-72300000D01*
X108000000Y-72300000D02*
X124000000Y-72300000D01*
X111000000Y-72700000D02*
X111000000Y-72700000D01*
X111000000Y-72800000D02*
X111000000Y-72800000D01*
X124000000Y-51500000D02*
X108000000Y-51500000D01*
X124000000Y-56800000D02*
X124000000Y-51500000D01*
X124000000Y-72300000D02*
X124000000Y-62800000D01*
X111000000Y-72700000D02*
G75*
G02*
X111000000Y-72800000I0J-50000D01*
G01*
X111000000Y-72800000D02*
G75*
G02*
X111000000Y-72700000I0J50000D01*
G01*
%TO.C,TP9*%
X125950000Y-116250000D02*
G75*
G02*
X124050000Y-116250000I-950000J0D01*
G01*
X124050000Y-116250000D02*
G75*
G02*
X125950000Y-116250000I950000J0D01*
G01*
%TO.C,J6*%
X129500000Y-68537500D02*
X133900000Y-68537500D01*
X133100000Y-74187500D02*
G75*
G02*
X133000000Y-74187500I-50000J0D01*
G01*
X133000000Y-74187500D02*
G75*
G02*
X133100000Y-74187500I50000J0D01*
G01*
%TO.C,C16*%
X63790580Y-109360000D02*
X63509420Y-109360000D01*
X63790580Y-110380000D02*
X63509420Y-110380000D01*
%TO.C,R13*%
X73515000Y-86842936D02*
X73515000Y-87297064D01*
X74985000Y-86842936D02*
X74985000Y-87297064D01*
%TO.C,R4*%
X71015000Y-115522064D02*
X71015000Y-115067936D01*
X72485000Y-115522064D02*
X72485000Y-115067936D01*
%TO.C,R5*%
X72915000Y-115522064D02*
X72915000Y-115067936D01*
X74385000Y-115522064D02*
X74385000Y-115067936D01*
%TO.C,R19*%
X99377500Y-68562742D02*
X99377500Y-69037258D01*
X100422500Y-68562742D02*
X100422500Y-69037258D01*
%TO.C,C19*%
X136615000Y-105378748D02*
X136615000Y-105901252D01*
X138085000Y-105378748D02*
X138085000Y-105901252D01*
%TO.C,U10*%
X83800000Y-81375000D02*
X86350000Y-81375000D01*
X84650000Y-82625000D02*
X86350000Y-82625000D01*
%TO.C,C3*%
X104090000Y-61659420D02*
X104090000Y-61940580D01*
X105110000Y-61659420D02*
X105110000Y-61940580D01*
%TO.C,C18*%
X138238748Y-93265000D02*
X138761252Y-93265000D01*
X138238748Y-94735000D02*
X138761252Y-94735000D01*
%TO.C,R10*%
X81488748Y-81265000D02*
X82011252Y-81265000D01*
X81488748Y-82735000D02*
X82011252Y-82735000D01*
%TO.C,U12*%
X136475000Y-95575000D02*
X138225000Y-95575000D01*
X138750000Y-95450000D02*
X142250000Y-95450000D01*
X138750000Y-101950000D02*
X138750000Y-95450000D01*
X142250000Y-95450000D02*
X142250000Y-101950000D01*
X142250000Y-101950000D02*
X138750000Y-101950000D01*
%TO.C,R11*%
X108455000Y-109772936D02*
X108455000Y-110227064D01*
X109925000Y-109772936D02*
X109925000Y-110227064D01*
%TO.C,U2*%
X55140000Y-90105000D02*
X61555000Y-90105000D01*
X55140000Y-108345000D02*
X55140000Y-90105000D01*
X55140000Y-108345000D02*
X61300000Y-108345000D01*
X80100000Y-90105000D02*
X80880000Y-90105000D01*
X80100000Y-108345000D02*
X80880000Y-108345000D01*
X80880000Y-90105000D02*
X80880000Y-91105000D01*
X80880000Y-108345000D02*
X80880000Y-107345000D01*
X62025000Y-108850000D02*
X61525000Y-108350000D01*
X62025000Y-108350000D01*
X62025000Y-108850000D01*
G36*
X62025000Y-108850000D02*
G01*
X61525000Y-108350000D01*
X62025000Y-108350000D01*
X62025000Y-108850000D01*
G37*
%TO.C,D2*%
X55000000Y-142237500D02*
X59800000Y-142237500D01*
X59800000Y-143837500D01*
X55000000Y-143837500D01*
X55000000Y-142237500D01*
X55825000Y-142037500D02*
X55575000Y-141537500D01*
X56075000Y-141537500D01*
X55825000Y-142037500D01*
G36*
X55825000Y-142037500D02*
G01*
X55575000Y-141537500D01*
X56075000Y-141537500D01*
X55825000Y-142037500D01*
G37*
%TO.C,R1*%
X103227500Y-56787258D02*
X103227500Y-56312742D01*
X104272500Y-56787258D02*
X104272500Y-56312742D01*
%TO.C,TP17*%
X125950000Y-110750000D02*
G75*
G02*
X124050000Y-110750000I-950000J0D01*
G01*
X124050000Y-110750000D02*
G75*
G02*
X125950000Y-110750000I950000J0D01*
G01*
%TO.C,C2*%
X104090000Y-64909420D02*
X104090000Y-65190580D01*
X105110000Y-64909420D02*
X105110000Y-65190580D01*
%TO.C,TP10*%
X125950000Y-119000000D02*
G75*
G02*
X124050000Y-119000000I-950000J0D01*
G01*
X124050000Y-119000000D02*
G75*
G02*
X125950000Y-119000000I950000J0D01*
G01*
%TO.C,TP5*%
X111980000Y-75060000D02*
G75*
G02*
X110080000Y-75060000I-950000J0D01*
G01*
X110080000Y-75060000D02*
G75*
G02*
X111980000Y-75060000I950000J0D01*
G01*
%TO.C,R8*%
X64515000Y-86158748D02*
X64515000Y-86681252D01*
X65985000Y-86158748D02*
X65985000Y-86681252D01*
%TO.C,R14*%
X88012742Y-70277500D02*
X88487258Y-70277500D01*
X88012742Y-71322500D02*
X88487258Y-71322500D01*
%TO.C,R22*%
X100377500Y-73037258D02*
X100377500Y-72562742D01*
X101422500Y-73037258D02*
X101422500Y-72562742D01*
%TO.C,SW1*%
X63350000Y-77070000D02*
X63350000Y-78270000D01*
X63350000Y-79870000D02*
X63350000Y-81070000D01*
X63350000Y-81070000D02*
X69750000Y-81070000D01*
X69750000Y-77070000D02*
X63350000Y-77070000D01*
X69750000Y-78270000D02*
X69750000Y-77070000D01*
X69750000Y-81070000D02*
X69750000Y-79870000D01*
%TO.C,TP7*%
X125950000Y-121750000D02*
G75*
G02*
X124050000Y-121750000I-950000J0D01*
G01*
X124050000Y-121750000D02*
G75*
G02*
X125950000Y-121750000I950000J0D01*
G01*
%TO.C,C17*%
X63811252Y-111035000D02*
X63288748Y-111035000D01*
X63811252Y-112505000D02*
X63288748Y-112505000D01*
%TO.C,R15*%
X88012742Y-68777500D02*
X88487258Y-68777500D01*
X88012742Y-69822500D02*
X88487258Y-69822500D01*
%TO.C,U7*%
X106350000Y-81375000D02*
X104650000Y-81375000D01*
X107200000Y-82625000D02*
X104650000Y-82625000D01*
%TO.C,R17*%
X101877500Y-73037258D02*
X101877500Y-72562742D01*
X102922500Y-73037258D02*
X102922500Y-72562742D01*
%TO.C,TP6*%
X125950000Y-127250000D02*
G75*
G02*
X124050000Y-127250000I-950000J0D01*
G01*
X124050000Y-127250000D02*
G75*
G02*
X125950000Y-127250000I950000J0D01*
G01*
%TO.C,S1*%
X80949500Y-52225000D02*
X80949500Y-55225000D01*
X82059500Y-51325000D02*
X82059500Y-52225000D01*
X87139500Y-51325000D02*
X82059500Y-51325000D01*
X87139500Y-52225000D02*
X87139500Y-51325000D01*
X88249500Y-52225000D02*
X80949500Y-52225000D01*
X88249500Y-55225000D02*
X88249500Y-52225000D01*
X88249500Y-58475000D02*
X81099500Y-58475000D01*
%TO.C,C20*%
X91265000Y-61061252D02*
X91265000Y-60538748D01*
X92735000Y-61061252D02*
X92735000Y-60538748D01*
%TO.C,R9*%
X69265000Y-86238748D02*
X69265000Y-86761252D01*
X70735000Y-86238748D02*
X70735000Y-86761252D01*
%TO.C,J4*%
X133300000Y-77837500D02*
X140700000Y-77837500D01*
X139900000Y-83487500D02*
G75*
G02*
X139800000Y-83487500I-50000J0D01*
G01*
X139800000Y-83487500D02*
G75*
G02*
X139900000Y-83487500I50000J0D01*
G01*
%TD*%
M02*
