%TF.GenerationSoftware,KiCad,Pcbnew,9.0.0*%
%TF.CreationDate,2025-07-20T18:05:20-04:00*%
%TF.ProjectId,PCB UI ESP32,50434220-5549-4204-9553-5033322e6b69,rev?*%
%TF.SameCoordinates,Original*%
%TF.FileFunction,Paste,Top*%
%TF.FilePolarity,Positive*%
%FSLAX46Y46*%
G04 Gerber Fmt 4.6, Leading zero omitted, Abs format (unit mm)*
G04 Created by KiCad (PCBNEW 9.0.0) date 2025-07-20 18:05:20*
%MOMM*%
%LPD*%
G01*
G04 APERTURE LIST*
G04 Aperture macros list*
%AMRoundRect*
0 Rectangle with rounded corners*
0 $1 Rounding radius*
0 $2 $3 $4 $5 $6 $7 $8 $9 X,Y pos of 4 corners*
0 Add a 4 corners polygon primitive as box body*
4,1,4,$2,$3,$4,$5,$6,$7,$8,$9,$2,$3,0*
0 Add four circle primitives for the rounded corners*
1,1,$1+$1,$2,$3*
1,1,$1+$1,$4,$5*
1,1,$1+$1,$6,$7*
1,1,$1+$1,$8,$9*
0 Add four rect primitives between the rounded corners*
20,1,$1+$1,$2,$3,$4,$5,0*
20,1,$1+$1,$4,$5,$6,$7,0*
20,1,$1+$1,$6,$7,$8,$9,0*
20,1,$1+$1,$8,$9,$2,$3,0*%
%AMFreePoly0*
4,1,9,0.275000,-0.600000,-0.275000,-0.600000,-0.275000,-0.200000,-0.725000,-0.200000,-0.725000,0.350000,-0.275000,0.350000,-0.275000,0.600000,0.275000,0.600000,0.275000,-0.600000,0.275000,-0.600000,$1*%
%AMFreePoly1*
4,1,9,0.275000,0.350000,0.725000,0.350000,0.725000,-0.200000,0.275000,-0.200000,0.275000,-0.600000,-0.275000,-0.600000,-0.275000,0.600000,0.275000,0.600000,0.275000,0.350000,0.275000,0.350000,$1*%
G04 Aperture macros list end*
%ADD10R,1.000000X1.500000*%
%ADD11R,1.200000X2.200000*%
%ADD12RoundRect,0.250000X-0.450000X0.262500X-0.450000X-0.262500X0.450000X-0.262500X0.450000X0.262500X0*%
%ADD13RoundRect,0.200000X0.275000X-0.200000X0.275000X0.200000X-0.275000X0.200000X-0.275000X-0.200000X0*%
%ADD14RoundRect,0.218750X0.256250X-0.218750X0.256250X0.218750X-0.256250X0.218750X-0.256250X-0.218750X0*%
%ADD15R,1.100000X0.500000*%
%ADD16RoundRect,0.250000X0.450000X-0.262500X0.450000X0.262500X-0.450000X0.262500X-0.450000X-0.262500X0*%
%ADD17RoundRect,0.250000X-0.475000X0.250000X-0.475000X-0.250000X0.475000X-0.250000X0.475000X0.250000X0*%
%ADD18RoundRect,0.150000X-0.150000X0.825000X-0.150000X-0.825000X0.150000X-0.825000X0.150000X0.825000X0*%
%ADD19RoundRect,0.150000X-0.150000X0.587500X-0.150000X-0.587500X0.150000X-0.587500X0.150000X0.587500X0*%
%ADD20RoundRect,0.150000X0.150000X0.425000X-0.150000X0.425000X-0.150000X-0.425000X0.150000X-0.425000X0*%
%ADD21RoundRect,0.075000X0.075000X0.500000X-0.075000X0.500000X-0.075000X-0.500000X0.075000X-0.500000X0*%
%ADD22O,1.000000X2.100000*%
%ADD23O,1.000000X1.800000*%
%ADD24R,0.600000X1.550000*%
%ADD25R,0.800000X1.800000*%
%ADD26RoundRect,0.225000X0.225000X0.250000X-0.225000X0.250000X-0.225000X-0.250000X0.225000X-0.250000X0*%
%ADD27RoundRect,0.200000X-0.275000X0.200000X-0.275000X-0.200000X0.275000X-0.200000X0.275000X0.200000X0*%
%ADD28RoundRect,0.225000X-0.250000X0.225000X-0.250000X-0.225000X0.250000X-0.225000X0.250000X0.225000X0*%
%ADD29RoundRect,0.250000X-0.250000X-0.475000X0.250000X-0.475000X0.250000X0.475000X-0.250000X0.475000X0*%
%ADD30R,1.750000X0.950000*%
%ADD31R,1.750000X3.200000*%
%ADD32R,0.900000X1.500000*%
%ADD33R,1.500000X0.900000*%
%ADD34R,0.900000X0.900000*%
%ADD35FreePoly0,0.000000*%
%ADD36R,0.700000X1.200000*%
%ADD37R,0.450000X1.200000*%
%ADD38FreePoly1,0.000000*%
%ADD39RoundRect,0.200000X-0.200000X-0.275000X0.200000X-0.275000X0.200000X0.275000X-0.200000X0.275000X0*%
%ADD40R,1.250000X1.000000*%
%ADD41RoundRect,0.250000X0.250000X0.475000X-0.250000X0.475000X-0.250000X-0.475000X0.250000X-0.475000X0*%
%ADD42RoundRect,0.250000X0.475000X-0.250000X0.475000X0.250000X-0.475000X0.250000X-0.475000X-0.250000X0*%
G04 APERTURE END LIST*
D10*
%TO.C,J5*%
X109225000Y-113700000D03*
X106725000Y-113700000D03*
X103425000Y-113700000D03*
X101725000Y-113700000D03*
X99225000Y-113700000D03*
X96725000Y-113700000D03*
X94300000Y-113700000D03*
X92600000Y-113700000D03*
X111725000Y-113700000D03*
X105075000Y-113700000D03*
D11*
X88750000Y-135900000D03*
X116750000Y-134700000D03*
D10*
X89250000Y-113700000D03*
%TD*%
D12*
%TO.C,R12*%
X105100000Y-109087500D03*
X105100000Y-110912500D03*
%TD*%
D13*
%TO.C,R21*%
X97900000Y-73625000D03*
X97900000Y-71975000D03*
%TD*%
D14*
%TO.C,D1*%
X76000000Y-87057500D03*
X76000000Y-85482500D03*
%TD*%
D15*
%TO.C,U9*%
X101450000Y-82000000D03*
X99150000Y-82000000D03*
%TD*%
D16*
%TO.C,R7*%
X75550000Y-116207500D03*
X75550000Y-114382500D03*
%TD*%
D17*
%TO.C,C21*%
X66450000Y-110120000D03*
X66450000Y-112020000D03*
%TD*%
D18*
%TO.C,U1*%
X103095000Y-60325000D03*
X101825000Y-60325000D03*
X100555000Y-60325000D03*
X99285000Y-60325000D03*
X98015000Y-60325000D03*
X96745000Y-60325000D03*
X95475000Y-60325000D03*
X94205000Y-60325000D03*
X94205000Y-65275000D03*
X95475000Y-65275000D03*
X96745000Y-65275000D03*
X98015000Y-65275000D03*
X99285000Y-65275000D03*
X100555000Y-65275000D03*
X101825000Y-65275000D03*
X103095000Y-65275000D03*
%TD*%
D19*
%TO.C,Q1*%
X103350000Y-68362500D03*
X101450000Y-68362500D03*
X102400000Y-70237500D03*
%TD*%
D13*
%TO.C,R18*%
X96400000Y-73625000D03*
X96400000Y-71975000D03*
%TD*%
D19*
%TO.C,Q2*%
X98350000Y-68362500D03*
X96450000Y-68362500D03*
X97400000Y-70237500D03*
%TD*%
D20*
%TO.C,J3*%
X100600000Y-57880000D03*
X99800000Y-57880000D03*
D21*
X98650000Y-57880000D03*
X97650000Y-57880000D03*
X97150000Y-57880000D03*
X96150000Y-57880000D03*
D20*
X95000000Y-57880000D03*
X94200000Y-57880000D03*
X94200000Y-57880000D03*
X95000000Y-57880000D03*
D21*
X95650000Y-57880000D03*
X96650000Y-57880000D03*
X98150000Y-57880000D03*
X99150000Y-57880000D03*
D20*
X99800000Y-57880000D03*
X100600000Y-57880000D03*
D22*
X101720000Y-57305000D03*
D23*
X101720000Y-53125000D03*
D22*
X93080000Y-57305000D03*
D23*
X93080000Y-53125000D03*
%TD*%
D13*
%TO.C,R16*%
X91000000Y-57125000D03*
X91000000Y-55475000D03*
%TD*%
%TO.C,R20*%
X99400000Y-73625000D03*
X99400000Y-71975000D03*
%TD*%
D16*
%TO.C,R6*%
X77450000Y-116207500D03*
X77450000Y-114382500D03*
%TD*%
D24*
%TO.C,J6*%
X132200000Y-73887500D03*
X131200000Y-73887500D03*
D25*
X133500000Y-70062500D03*
X129900000Y-70062500D03*
%TD*%
D26*
%TO.C,C16*%
X64425000Y-109870000D03*
X62875000Y-109870000D03*
%TD*%
D12*
%TO.C,R13*%
X74250000Y-86157500D03*
X74250000Y-87982500D03*
%TD*%
D16*
%TO.C,R4*%
X71750000Y-116207500D03*
X71750000Y-114382500D03*
%TD*%
%TO.C,R5*%
X73650000Y-116207500D03*
X73650000Y-114382500D03*
%TD*%
D27*
%TO.C,R19*%
X99900000Y-67975000D03*
X99900000Y-69625000D03*
%TD*%
D17*
%TO.C,C19*%
X137350000Y-104690000D03*
X137350000Y-106590000D03*
%TD*%
D15*
%TO.C,U10*%
X84350000Y-82000000D03*
X86650000Y-82000000D03*
%TD*%
D28*
%TO.C,C3*%
X104600000Y-61025000D03*
X104600000Y-62575000D03*
%TD*%
D29*
%TO.C,C18*%
X137550000Y-94000000D03*
X139450000Y-94000000D03*
%TD*%
%TO.C,R10*%
X80800000Y-82000000D03*
X82700000Y-82000000D03*
%TD*%
D30*
%TO.C,U12*%
X137350000Y-96400000D03*
X137350000Y-98700000D03*
X137350000Y-101000000D03*
D31*
X143650000Y-98700000D03*
%TD*%
D12*
%TO.C,R11*%
X109190000Y-109087500D03*
X109190000Y-110912500D03*
%TD*%
D32*
%TO.C,U2*%
X62750000Y-107975000D03*
X64020000Y-107975000D03*
X65290000Y-107975000D03*
X66560000Y-107975000D03*
X67830000Y-107975000D03*
X69100000Y-107975000D03*
X70370000Y-107975000D03*
X71640000Y-107975000D03*
X72910000Y-107975000D03*
X74180000Y-107975000D03*
X75450000Y-107975000D03*
X76720000Y-107975000D03*
X77990000Y-107975000D03*
X79260000Y-107975000D03*
D33*
X80510000Y-104935000D03*
X80510000Y-103665000D03*
X80510000Y-102395000D03*
X80510000Y-101125000D03*
X80510000Y-99855000D03*
X80510000Y-98585000D03*
X80510000Y-97315000D03*
X80510000Y-96045000D03*
X80510000Y-94775000D03*
X80510000Y-93505000D03*
D32*
X79260000Y-90475000D03*
X77990000Y-90475000D03*
X76720000Y-90475000D03*
X75450000Y-90475000D03*
X74180000Y-90475000D03*
X72910000Y-90475000D03*
X71640000Y-90475000D03*
X70370000Y-90475000D03*
X69100000Y-90475000D03*
X67830000Y-90475000D03*
X66560000Y-90475000D03*
X65290000Y-90475000D03*
X64020000Y-90475000D03*
X62750000Y-90475000D03*
D34*
X69070000Y-102125000D03*
X70470000Y-102125000D03*
X71870000Y-102125000D03*
X69070000Y-100725000D03*
X70470000Y-100725000D03*
X71870000Y-100725000D03*
X69070000Y-99325000D03*
X70470000Y-99325000D03*
X71870000Y-99325000D03*
%TD*%
D35*
%TO.C,D2*%
X55825000Y-143037500D03*
D36*
X56950000Y-143037500D03*
D37*
X57975000Y-143037500D03*
D38*
X58975000Y-143037500D03*
%TD*%
D13*
%TO.C,R1*%
X103750000Y-57375000D03*
X103750000Y-55725000D03*
%TD*%
D28*
%TO.C,C2*%
X104600000Y-64275000D03*
X104600000Y-65825000D03*
%TD*%
D17*
%TO.C,R8*%
X65250000Y-85470000D03*
X65250000Y-87370000D03*
%TD*%
D39*
%TO.C,R14*%
X87425000Y-70800000D03*
X89075000Y-70800000D03*
%TD*%
D13*
%TO.C,R22*%
X100900000Y-73625000D03*
X100900000Y-71975000D03*
%TD*%
D40*
%TO.C,SW1*%
X62675000Y-79070000D03*
X70425000Y-79070000D03*
%TD*%
D41*
%TO.C,C17*%
X64500000Y-111770000D03*
X62600000Y-111770000D03*
%TD*%
D39*
%TO.C,R15*%
X87425000Y-69300000D03*
X89075000Y-69300000D03*
%TD*%
D15*
%TO.C,U7*%
X106650000Y-82000000D03*
X104350000Y-82000000D03*
%TD*%
D13*
%TO.C,R17*%
X102400000Y-73625000D03*
X102400000Y-71975000D03*
%TD*%
D42*
%TO.C,C20*%
X92000000Y-61750000D03*
X92000000Y-59850000D03*
%TD*%
D17*
%TO.C,R9*%
X70000000Y-85550000D03*
X70000000Y-87450000D03*
%TD*%
D24*
%TO.C,J4*%
X139000000Y-83187500D03*
X138000000Y-83187500D03*
X137000000Y-83187500D03*
X136000000Y-83187500D03*
X135000000Y-83187500D03*
D25*
X140300000Y-79362500D03*
X133700000Y-79362500D03*
%TD*%
M02*
