M48
; DRILL file {KiCad 9.0.0} date 2025-07-20T18:05:25-0400
; FORMAT={-:-/ absolute / metric / decimal}
; #@! TF.CreationDate,2025-07-20T18:05:25-04:00
; #@! TF.GenerationSoftware,Kicad,Pcbnew,9.0.0
; #@! TF.FileFunction,MixedPlating,1,2
FMAT,2
METRIC
; #@! TA.AperFunction,Plated,PTH,ComponentDrill
T1C0.200
; #@! TA.AperFunction,Plated,PTH,ViaDrill
T2C0.400
; #@! TA.AperFunction,Plated,PTH,ComponentDrill
T3C0.600
; #@! TA.AperFunction,Plated,PTH,ComponentDrill
T4C1.050
; #@! TA.AperFunction,Plated,PTH,ComponentDrill
T5C1.100
; #@! TA.AperFunction,Plated,PTH,ComponentDrill
T6C1.300
; #@! TA.AperFunction,Plated,PTH,ComponentDrill
T7C1.550
; #@! TA.AperFunction,Plated,PTH,ComponentDrill
T8C2.973
; #@! TA.AperFunction,NonPlated,NPTH,ComponentDrill
T9C0.650
; #@! TA.AperFunction,NonPlated,NPTH,ComponentDrill
T10C1.500
; #@! TA.AperFunction,NonPlated,NPTH,ComponentDrill
T11C3.200
%
G90
G05
T1
X69.07Y-100.025
X69.07Y-101.425
X69.77Y-99.325
X69.77Y-100.75
X69.77Y-102.125
X70.47Y-100.025
X70.47Y-101.425
X71.17Y-99.325
X71.17Y-100.75
X71.17Y-102.125
X71.87Y-100.025
X71.87Y-101.425
T2
X50.75Y-124.5
X51.75Y-68.5
X53.75Y-142.5
X61.0Y-143.5
X62.25Y-88.25
X62.25Y-98.25
X62.25Y-105.5
X62.25Y-115.25
X64.0Y-116.5
X64.25Y-105.75
X65.25Y-83.5
X66.5Y-76.25
X66.75Y-87.25
X67.5Y-116.0
X68.0Y-111.0
X69.5Y-75.5
X69.5Y-123.0
X70.0Y-83.5
X71.0Y-81.5
X71.64Y-111.25
X72.5Y-83.25
X72.75Y-125.25
X73.0Y-117.75
X73.65Y-111.15
X73.75Y-74.25
X75.1Y-122.8
X75.55Y-111.12
X76.6Y-117.8
X76.75Y-104.87
X77.15Y-86.67
X77.45Y-111.07
X78.25Y-92.75
X79.2Y-111.1
X79.75Y-114.5
X80.25Y-112.75
X82.25Y-90.5
X82.25Y-97.0
X82.25Y-117.0
X82.5Y-105.5
X86.25Y-117.75
X86.75Y-115.0
X87.9Y-92.0
X88.0Y-73.9
X88.25Y-99.5
X90.0Y-66.3
X91.0Y-58.4
X91.0Y-111.5
X91.3Y-73.0
X91.5Y-88.7
X91.75Y-96.0
X92.3Y-69.3
X92.3Y-70.8
X92.63Y-94.58
X92.8Y-63.8
X93.25Y-61.8
X93.75Y-98.25
X94.1Y-71.5
X94.1Y-74.6
X94.25Y-111.25
X94.882Y-58.837
X95.25Y-86.25
X95.4Y-69.8
X95.6Y-54.2
X97.0Y-95.75
X97.15Y-55.92
X97.9Y-74.6
X98.5Y-84.75
X98.5Y-103.75
X98.651Y-55.9
X99.1Y-54.3
X99.25Y-111.25
X99.75Y-92.25
X99.9Y-71.05
X99.912Y-58.832
X100.5Y-61.7
X100.55Y-93.0
X101.4Y-93.8
X101.75Y-91.5
X101.8Y-61.7
X101.9Y-63.6
X102.2Y-94.7
X103.5Y-84.7
X103.65Y-69.8
X104.0Y-103.75
X104.6Y-59.6
X104.6Y-67.5
X105.0Y-57.4
X105.75Y-64.3
X106.1Y-65.9
X106.75Y-111.25
X107.25Y-110.0
X114.75Y-111.0
X115.7Y-57.2
X116.5Y-58.2
X116.75Y-142.25
X117.25Y-110.0
X117.3Y-59.2
X118.0Y-115.0
X118.1Y-60.2
X118.98Y-61.12
X119.0Y-91.8
X120.5Y-73.5
X121.6Y-84.9
X121.75Y-112.0
X121.8Y-53.6
X123.0Y-89.75
X124.3Y-90.7
X125.0Y-51.6
X125.1Y-56.0
X125.2Y-104.9
X126.25Y-133.5
X127.25Y-113.5
X127.4Y-66.3
X127.5Y-73.25
X128.25Y-77.75
X129.0Y-79.75
X129.1Y-73.0
X129.5Y-91.25
X129.75Y-81.75
X130.5Y-76.75
X131.2Y-72.4
X131.25Y-77.5
X131.5Y-119.0
X132.25Y-116.25
X132.5Y-79.25
X132.7Y-84.8
X132.8Y-75.4
X133.0Y-121.75
X133.65Y-67.5
X133.75Y-127.25
X134.5Y-124.5
X134.6Y-95.8
X135.25Y-99.75
X136.05Y-75.45
X137.35Y-95.2
X140.75Y-87.0
X141.5Y-86.25
X142.25Y-85.5
X143.0Y-84.75
X143.5Y-78.0
X143.5Y-117.5
X143.75Y-83.25
T4
X82.349Y-54.475
X86.849Y-54.475
T5
X73.87Y-79.23
X76.41Y-79.23
X78.95Y-79.23
X81.49Y-79.23
X84.03Y-79.23
X86.57Y-79.23
X89.11Y-79.23
X91.65Y-79.23
X94.19Y-79.23
X96.73Y-79.23
X99.27Y-79.23
X101.81Y-79.23
X104.35Y-79.23
X106.89Y-79.23
X109.43Y-79.23
X111.97Y-79.23
X114.51Y-79.23
X117.05Y-79.23
X119.59Y-79.23
X122.13Y-79.23
T6
X111.0Y-70.3
X113.5Y-52.8
X116.0Y-70.3
X118.5Y-52.8
X121.0Y-70.3
T7
X81.099Y-56.975
X88.099Y-56.975
T8
X108.6Y-59.8
X123.4Y-59.8
T9
X94.51Y-56.805
X100.29Y-56.805
T10
X90.25Y-138.0
X114.45Y-138.0
T11
X55.4Y-72.4
X59.965Y-129.075
X83.4Y-122.4
X139.4Y-122.4
T3
G00X93.08Y-53.525
M15
G01X93.08Y-52.725
M16
G05
G00X93.08Y-57.855
M15
G01X93.08Y-56.755
M16
G05
G00X101.72Y-53.525
M15
G01X101.72Y-52.725
M16
G05
G00X101.72Y-57.855
M15
G01X101.72Y-56.755
M16
G05
M30
